<svg version="1.0" xmlns="http://www.w3.org/2000/svg" width="842.000000pt" height="829.000000pt" viewBox="0 0 829.000000 829.000000" preserveAspectRatio="xMidYMid meet">
<!-- vermelho -->
<g transform="translate(0.000000,829.000000) scale(0.100000,-0.100000)"
fill="#FF0000" stroke="none">
<path d="M5124 8268 c40 -136 43 -174 36 -378 -3 -97 0 -128 19 -197 13 -46
38 -108 57 -139 l33 -55 -5 -142 c-6 -135 -5 -146 21 -227 15 -47 51 -131 81
-188 46 -86 56 -114 60 -170 8 -92 49 -234 91 -315 26 -48 56 -86 107 -132 68
-61 72 -67 100 -154 16 -49 26 -97 23 -105 -9 -22 9 -20 99 9 42 14 98 25 123
25 69 0 149 24 248 74 49 24 108 50 133 57 25 7 54 19 65 26 11 7 42 13 70 13
69 0 159 25 225 62 30 17 56 31 57 32 1 1 -9 35 -23 76 -13 41 -24 82 -24 91
0 38 -103 221 -162 290 -62 72 -63 73 -69 148 -10 114 -62 242 -139 343 l-63
82 -2 130 c-2 146 -28 276 -64 322 -26 33 -26 65 -1 131 23 60 36 198 26 267
l-7 46 -561 0 -560 0 6 -22z"/>
<path d="M125 6435 c-5 -2 -36 -6 -67 -10 l-58 -6 0 -520 0 -519 49 0 c47 0
51 -2 100 -59 59 -68 162 -141 243 -171 66 -25 77 -36 85 -87 3 -21 21 -71 39
-110 28 -58 47 -83 97 -124 115 -95 117 -97 117 -132 0 -78 43 -169 125 -267
l53 -64 -5 -66 c-3 -36 0 -92 6 -125 5 -33 15 -87 20 -120 6 -33 22 -96 37
-141 l26 -80 -31 -91 c-21 -61 -31 -109 -31 -150 0 -62 26 -283 35 -291 3 -3
38 5 77 17 138 43 158 45 264 31 55 -7 155 -12 224 -11 118 2 128 0 183 -25
l57 -28 113 13 c62 6 132 9 154 5 l42 -6 -19 38 c-11 21 -20 51 -20 66 0 16
-9 57 -21 91 -21 61 -21 63 -3 157 17 91 17 99 0 200 -23 134 -47 197 -97 254
-38 43 -40 48 -30 79 25 76 30 144 16 229 -30 171 -51 225 -136 336 -39 50
-48 69 -42 86 11 31 5 139 -12 226 -19 100 -58 191 -139 327 -53 89 -83 127
-143 180 -58 53 -82 82 -103 130 -62 135 -191 292 -333 405 -72 57 -174 104
-244 112 -53 6 -64 11 -118 62 -109 102 -268 164 -412 163 -48 0 -92 -2 -98
-4z"/>
<path d="M7470 5354 c-28 -12 -73 -15 -227 -13 l-192 3 -103 -52 -103 -51
-145 -3 -145 -3 -91 -43 c-63 -31 -96 -53 -108 -73 -9 -16 -13 -29 -9 -29 5 0
21 -26 35 -58 15 -32 55 -89 89 -127 80 -91 98 -129 109 -227 12 -102 36 -149
108 -215 l57 -52 6 -113 c8 -135 25 -203 61 -247 30 -35 30 -43 1 -125 -8 -23
-13 -82 -13 -146 0 -87 4 -116 21 -155 23 -52 22 -69 -11 -160 -20 -52 -22
-73 -16 -160 5 -89 3 -109 -20 -185 -14 -47 -29 -104 -33 -126 -4 -23 -19 -55
-33 -72 -16 -19 -33 -63 -47 -119 -31 -122 -61 -175 -151 -268 -46 -47 -82
-92 -86 -110 -5 -16 -8 -73 -8 -125 l-1 -95 -35 -17 c-19 -10 -62 -29 -96 -43
-38 -17 -79 -45 -109 -75 l-48 -49 1 -88 c4 -213 31 -427 78 -614 37 -147 41
-202 19 -264 -8 -22 -18 -75 -21 -117 -6 -64 -4 -82 11 -104 15 -23 21 -26 57
-20 136 22 369 193 452 332 25 42 45 65 66 73 16 6 44 16 61 23 88 33 250 171
288 247 24 46 65 154 80 208 9 35 23 51 69 85 82 61 159 145 192 209 27 52 98
129 120 129 20 0 8 47 -25 100 -53 83 -47 122 40 262 57 92 81 165 99 303 17
130 33 180 73 232 58 74 113 170 113 198 0 16 6 51 14 79 8 28 21 86 29 129
14 73 13 85 -5 165 -11 48 -25 98 -31 112 -6 14 -12 28 -14 31 -1 3 6 22 17
41 10 20 27 65 36 101 18 65 18 66 -10 189 -19 80 -40 145 -63 187 -36 68 -37
74 -8 151 12 32 17 79 18 160 1 108 0 118 -27 172 -16 31 -49 78 -74 105 -86
93 -92 105 -92 166 0 90 -18 150 -63 215 -68 97 -110 152 -116 152 -3 -1 -22
-8 -41 -16z"/>
<path d="M2334 2326 c-17 -8 -39 -25 -50 -38 -51 -65 -130 -78 -239 -41 -33
12 -92 24 -132 28 -64 6 -77 4 -131 -20 -55 -25 -65 -26 -112 -16 -28 6 -83
11 -123 11 -43 1 -82 6 -97 15 -14 8 -33 14 -43 15 -29 0 -127 -69 -127 -90 0
-86 79 -249 169 -348 27 -31 55 -75 66 -105 40 -114 74 -166 178 -269 68 -69
121 -113 159 -132 74 -37 95 -57 103 -98 26 -133 88 -216 229 -309 105 -69
272 -137 371 -151 84 -12 139 -42 268 -143 124 -96 128 -98 178 -85 22 6 68
11 102 10 34 0 81 2 104 5 51 7 65 0 146 -71 34 -31 89 -70 122 -86 33 -17 61
-33 62 -37 2 -3 67 -5 145 -4 105 1 155 6 188 18 25 9 77 19 115 21 66 5 73 3
130 -31 120 -71 144 -79 241 -83 143 -6 223 11 333 68 108 57 125 59 351 36
69 -7 128 -12 131 -10 19 10 17 98 -5 180 -54 208 -55 227 -15 346 23 69 24
106 4 178 -45 160 -87 322 -96 372 -6 32 -15 55 -20 52 -5 -3 -33 3 -62 12
-41 14 -86 18 -207 19 l-155 0 -89 -39 c-87 -38 -89 -38 -123 -22 -36 17 -173
36 -263 36 -57 0 -120 -16 -180 -45 -39 -18 -47 -16 -130 31 -75 42 -184 67
-265 59 -124 -11 -121 -11 -172 37 -27 24 -77 63 -112 87 -58 39 -72 44 -162
56 -105 14 -137 27 -155 66 -7 13 -25 53 -42 89 -43 91 -72 116 -163 139 -160
41 -178 58 -185 178 -9 133 1 123 -112 123 -58 -1 -109 -6 -128 -14z"/>
<path d="M8345 10 c-4 -6 10 -10 34 -10 23 0 41 5 41 10 0 6 -15 10 -34 10
-19 0 -38 -4 -41 -10z"/>
</g>
<g transform="translate(0.000000,829.000000) scale(0.100000,-0.100000)"
fill="#000000" stroke="none">
<path d="M5150 8208 c10 -46 23 -97 30 -115 8 -23 9 -42 1 -70 -6 -21 -11 -84
-11 -140 0 -122 33 -259 80 -332 l30 -48 -6 -144 c-6 -131 -5 -151 16 -219 12
-41 48 -127 80 -190 48 -95 59 -127 65 -185 9 -93 44 -214 88 -301 27 -53 53
-86 111 -138 43 -39 76 -76 76 -87 0 -10 9 -41 20 -70 12 -28 21 -67 22 -85 1
-19 4 -34 8 -34 4 0 40 11 80 25 40 14 93 25 116 25 72 0 144 20 241 66 146
70 222 95 309 105 81 9 201 49 187 63 -4 4 -1 5 7 2 8 -3 26 3 39 13 18 14 21
22 13 37 -17 32 -42 118 -42 141 0 37 -98 213 -163 293 -60 73 -62 77 -69 150
-11 110 -62 239 -131 332 -31 42 -61 79 -67 83 -6 4 -9 59 -8 138 1 150 -19
259 -58 317 -29 42 -30 70 -5 143 23 66 36 197 27 261 l-7 46 -195 0 -194 0 0
-22 c0 -66 -22 -103 -114 -192 -136 -134 -230 -188 -263 -155 -9 9 -23 9 -58
-1 -39 -11 -48 -11 -60 1 -26 28 -27 56 -2 85 14 16 28 44 31 61 4 18 12 35
17 38 5 4 9 15 9 26 0 10 5 19 10 19 6 0 10 4 10 9 0 16 -38 19 -58 5 -17 -12
-21 -12 -26 2 -4 11 8 30 39 58 25 23 45 48 45 54 0 9 -40 12 -144 12 l-143 0
17 -82z m730 -146 c0 -5 21 -10 47 -11 26 -1 52 -6 57 -11 6 -6 20 -10 33 -10
15 0 24 -7 29 -24 7 -31 -50 -149 -88 -181 -35 -30 -35 -35 2 -35 38 0 38 -17
0 -53 -16 -15 -39 -55 -51 -88 -17 -45 -33 -70 -67 -97 -87 -72 -223 -215
-243 -255 -29 -58 -60 -91 -71 -75 -17 28 -7 58 34 97 40 37 42 42 27 56 -15
15 -20 14 -62 -15 -25 -18 -50 -30 -55 -26 -14 8 -8 181 7 220 7 17 21 36 31
43 17 12 60 89 60 107 0 16 -22 3 -30 -16 -13 -32 -31 -53 -57 -66 -31 -17
-33 -15 -33 16 1 48 37 93 180 222 39 36 106 98 148 137 70 67 102 87 102 65z
m46 -641 c24 -19 33 -19 81 -5 32 9 47 -26 39 -93 -4 -30 -13 -67 -20 -81 -8
-15 -17 -43 -20 -62 -3 -22 -16 -44 -36 -60 -38 -32 -39 -50 0 -50 24 0 28 -3
23 -17 -3 -10 -14 -27 -23 -38 -10 -11 -20 -39 -23 -62 -3 -24 -18 -60 -38
-88 -19 -26 -38 -55 -44 -64 -15 -24 -36 -35 -70 -35 -27 -1 -30 -4 -33 -38
-3 -32 -10 -42 -48 -68 -25 -16 -49 -30 -55 -30 -18 0 -9 37 22 85 23 36 27
50 18 56 -8 5 -17 -2 -26 -18 -15 -29 -42 -52 -60 -53 -20 0 -15 45 8 74 27
34 17 47 -14 18 -41 -38 -48 -4 -20 86 13 40 26 60 45 71 31 18 34 28 13 55
-12 16 -11 23 5 60 10 22 25 63 32 89 7 27 20 56 28 65 25 28 61 81 90 134 25
45 70 88 93 88 5 0 20 -9 33 -19z m304 -361 c10 0 35 -15 55 -34 31 -30 35
-38 25 -55 -6 -11 -8 -33 -5 -48 3 -16 2 -40 -1 -55 -5 -25 -10 -28 -44 -28
-49 0 -58 -14 -25 -42 28 -24 32 -60 10 -98 -8 -14 -14 -44 -15 -68 0 -42 -17
-73 -86 -159 -27 -34 -44 -23 -37 22 8 48 -15 46 -64 -4 -41 -42 -98 -75 -113
-66 -5 3 -8 33 -8 65 2 71 -12 93 -36 59 -16 -23 -16 -23 -16 -2 0 12 4 24 9
27 5 4 28 43 50 89 51 103 113 203 151 242 16 17 36 49 44 73 8 23 27 58 42
78 23 29 29 33 36 20 5 -9 17 -16 28 -16z"/>
<path d="M5903 7963 c-7 -2 -13 -11 -13 -19 0 -12 4 -12 20 -4 32 17 26 37 -7
23z"/>
<path d="M6169 6993 c-7 -18 -6 -30 1 -37 13 -13 27 1 35 37 10 37 -21 38 -36
0z"/>
<path d="M73 6423 l-73 -4 0 -152 1 -152 47 -22 c26 -12 59 -25 75 -29 28 -6
29 -5 30 44 0 33 27 24 52 -16 11 -18 35 -54 54 -79 48 -66 138 -242 146 -284
4 -20 2 -45 -3 -56 -8 -14 -4 -38 14 -93 25 -76 30 -110 17 -110 -5 0 -17 17
-28 37 -24 46 -46 52 -61 18 -10 -20 -9 -31 7 -62 22 -44 24 -76 5 -92 -17
-15 -33 4 -42 48 -5 24 -15 35 -43 47 -19 8 -31 18 -26 22 8 6 12 72 7 106 -3
14 -42 -25 -42 -41 0 -7 -29 19 -65 59 -36 39 -65 75 -65 79 0 10 -46 20 -64
13 -14 -5 -16 -29 -16 -160 l0 -154 47 0 c43 0 50 -4 102 -58 72 -76 182 -155
245 -175 60 -20 86 -43 86 -73 0 -31 37 -130 67 -176 13 -21 58 -65 101 -99
42 -34 78 -62 80 -64 1 -1 7 -30 13 -64 16 -103 45 -165 110 -236 l59 -65 0
-76 c0 -86 33 -316 54 -372 8 -20 20 -51 27 -68 11 -28 9 -38 -16 -100 -34
-86 -42 -178 -26 -322 7 -59 15 -115 18 -125 5 -20 -1 -21 131 20 75 23 94 25
184 19 55 -3 108 -11 119 -17 12 -6 61 -7 134 -3 111 7 117 6 180 -21 l66 -28
109 13 c60 7 125 9 145 6 37 -7 37 -7 21 16 -9 12 -16 38 -16 58 -1 19 -8 53
-16 75 -28 73 -32 113 -18 178 34 158 -6 369 -88 462 -40 45 -46 73 -28 121
16 41 13 170 -5 258 -24 116 -58 192 -120 269 -47 58 -54 72 -48 95 5 15 7 56
5 92 -5 152 -42 262 -149 447 -54 93 -82 129 -149 191 -51 48 -88 92 -98 116
-39 93 -128 215 -227 311 -160 153 -241 202 -353 212 -56 6 -63 10 -113 59
-54 55 -135 102 -233 136 -58 20 -193 29 -327 21z m394 -230 c10 -15 35 -44
57 -64 33 -33 38 -43 34 -74 -5 -44 15 -47 37 -5 16 31 45 39 63 17 7 -8 7
-18 2 -27 -6 -8 -10 -32 -10 -52 0 -44 14 -48 53 -18 l25 20 26 -44 c20 -35
28 -68 38 -161 11 -106 15 -119 35 -128 32 -14 38 -74 24 -236 -15 -170 -17
-179 -47 -218 -13 -17 -24 -36 -24 -41 0 -6 -7 -12 -15 -16 -8 -3 -15 -1 -15
3 0 5 -9 7 -20 4 -11 -3 -20 -13 -20 -23 0 -31 -11 -50 -30 -50 -24 0 -43 25
-35 49 9 28 -10 35 -47 17 -17 -9 -33 -14 -36 -12 -2 3 -8 91 -12 198 -7 144
-14 212 -29 267 -12 41 -21 85 -21 99 0 13 -21 67 -46 120 -89 185 -102 216
-97 229 4 9 12 11 22 7 9 -4 31 -9 49 -12 24 -3 32 0 32 11 0 22 -26 40 -66
43 -43 3 -79 26 -87 53 -8 31 6 33 42 7 45 -34 71 -25 71 25 0 47 20 52 47 12z
m-391 -10 c32 -44 36 -53 24 -53 -16 0 -60 47 -60 65 0 23 14 18 36 -12z
m1038 -406 c13 -18 20 -42 20 -67 -2 -43 20 -56 31 -20 3 11 11 20 16 20 5 0
9 -9 9 -20 0 -11 -4 -20 -10 -20 -5 0 -10 -25 -10 -55 0 -44 7 -67 30 -108
l30 -52 0 42 c0 23 -4 45 -10 48 -5 3 -10 24 -10 46 0 32 4 39 19 39 20 0 31
-25 31 -74 0 -16 7 -65 16 -109 13 -61 14 -85 5 -99 -18 -28 -13 -73 10 -94
17 -16 20 -26 14 -64 -11 -76 -65 -222 -97 -263 -17 -21 -38 -59 -48 -85 l-18
-47 -11 28 c-6 16 -11 47 -11 69 0 39 -1 40 -18 25 -27 -24 -41 -21 -48 11
-16 74 -22 77 -59 35 -18 -22 -25 -24 -28 -13 -2 8 -14 45 -26 81 -21 64 -22
73 -11 201 6 74 10 197 8 275 -3 126 -1 143 16 161 10 12 20 42 23 69 7 69 6
68 63 68 46 0 55 -4 74 -28z m-854 -432 c24 -47 19 -55 -18 -28 -29 21 -38 44
-28 70 8 20 20 10 46 -42z m100 -79 c0 -3 -4 -8 -10 -11 -5 -3 -10 -1 -10 4 0
6 5 11 10 11 6 0 10 -2 10 -4z m1125 -62 c9 -14 19 -42 22 -62 4 -20 17 -51
30 -70 12 -19 23 -49 24 -66 0 -17 2 -77 4 -133 4 -103 -5 -130 -25 -77 -7 16
-16 24 -27 22 -28 -5 -26 -33 4 -68 l27 -33 -22 -38 c-38 -66 -25 -78 33 -28
34 30 35 30 35 8 0 -25 -80 -156 -122 -201 -20 -21 -34 -28 -47 -23 -15 4 -23
-1 -33 -22 -7 -15 -36 -43 -63 -61 -28 -19 -63 -52 -79 -73 -23 -33 -30 -37
-47 -29 -10 6 -19 17 -19 25 0 26 -20 26 -45 1 -36 -36 -51 -33 -59 13 -10 64
2 101 36 108 39 8 42 17 22 69 -13 34 -14 48 -6 56 7 7 12 31 12 54 0 41 39
128 116 259 13 23 30 60 38 83 9 24 24 55 34 70 11 15 22 45 26 67 4 22 20 59
37 82 16 23 29 48 29 55 0 17 20 38 36 38 6 0 19 -12 29 -26z m-500 -436 c5
-18 3 -28 -4 -28 -6 0 -11 6 -11 13 0 6 -3 23 -6 37 -5 17 -4 22 4 15 6 -5 14
-22 17 -37z m72 10 c-3 -7 -5 -2 -5 12 0 14 2 19 5 13 2 -7 2 -19 0 -25z m703
-279 c0 -10 -9 -28 -20 -39 -21 -21 -27 -49 -10 -51 6 -1 15 -3 20 -4 6 -1 16
-3 23 -4 8 -1 12 -17 12 -47 -1 -42 -3 -47 -33 -60 -33 -14 -43 -34 -17 -34
22 0 19 -52 -4 -82 -33 -41 -37 -75 -11 -96 l22 -18 -24 -38 c-12 -21 -39 -53
-58 -70 -41 -37 -100 -95 -195 -195 -76 -80 -99 -96 -122 -87 -9 4 -27 -1 -41
-10 -22 -15 -27 -15 -57 2 -28 15 -36 16 -49 5 -9 -8 -16 -19 -16 -26 0 -15
-19 -24 -38 -17 -19 7 -15 17 24 63 34 40 36 47 30 91 -4 29 -2 56 5 69 9 17
8 31 -1 60 -17 51 -1 73 47 66 29 -5 34 -3 39 21 3 15 9 35 15 44 5 10 9 31 9
47 0 22 17 46 73 103 93 97 107 114 134 168 32 62 95 153 111 158 19 6 4 -70
-15 -82 -18 -10 -47 -75 -38 -84 11 -11 39 14 49 45 13 38 106 132 124 125 6
-2 12 -13 12 -23z m-552 -311 c-4 -28 -45 -38 -55 -13 -7 19 12 35 40 35 13 0
18 -6 15 -22z m-55 -93 c-3 -9 -8 -14 -10 -11 -3 3 -2 9 2 15 9 16 15 13 8 -4z
m587 -190 c0 -8 -9 -24 -20 -35 -40 -40 -13 -56 33 -20 33 26 35 26 43 -15 7
-41 -8 -65 -40 -65 -40 0 -66 -28 -66 -70 0 -21 5 -42 10 -45 26 -16 -12 -115
-45 -115 -19 0 -19 34 0 50 18 15 20 46 3 56 -7 5 -38 -21 -82 -69 -39 -43
-75 -77 -79 -77 -25 0 53 130 91 151 12 7 25 23 28 36 4 13 17 32 31 43 18 14
24 27 21 47 l-3 28 -20 -21 c-25 -26 -77 -92 -89 -113 -5 -9 -16 -20 -24 -25
-8 -4 -39 -30 -68 -57 -30 -27 -58 -49 -64 -49 -28 0 -12 29 66 112 248 267
274 291 274 253z m80 -189 c0 -19 -39 -66 -55 -66 -12 0 -12 6 -4 27 6 15 15
33 21 40 14 17 38 17 38 -1z m10 -120 c0 -2 -7 -9 -15 -16 -12 -10 -15 -10
-15 4 0 9 7 16 15 16 8 0 15 -2 15 -4z"/>
<path d="M717 5933 c-6 -11 7 -121 16 -130 4 -4 6 23 4 60 -4 65 -10 87 -20
70z"/>
<path d="M1427 5133 c-13 -12 -7 -61 8 -67 24 -9 46 5 43 27 -3 22 -40 51 -51
40z"/>
<path d="M1475 5015 c-3 -8 -7 -22 -10 -30 -6 -21 5 -45 21 -45 10 0 14 13 14
45 0 43 -15 61 -25 30z"/>
<path d="M1645 4059 c-8 -23 9 -41 31 -32 13 5 25 39 16 47 -13 14 -41 4 -47
-15z"/>
<path d="M7474 5355 c-28 -13 -234 -19 -391 -13 -20 1 -69 -17 -135 -50 l-103
-52 -121 0 c-132 0 -189 -12 -286 -61 -60 -30 -93 -65 -79 -83 4 -6 13 -26 19
-43 14 -43 64 -115 125 -183 62 -69 73 -94 85 -202 11 -99 44 -160 118 -217
l44 -33 0 -87 c0 -51 8 -118 19 -164 17 -70 27 -90 66 -143 6 -9 4 -41 -7 -96
-9 -46 -20 -117 -24 -159 -5 -68 -3 -83 21 -143 l27 -68 -20 -47 c-31 -68 -44
-152 -37 -234 5 -60 2 -86 -20 -162 -15 -49 -30 -107 -35 -128 -4 -21 -17 -49
-30 -61 -13 -15 -31 -61 -46 -117 -33 -127 -63 -181 -151 -270 -62 -64 -78
-86 -89 -128 -9 -36 -10 -60 -4 -77 6 -14 10 -47 10 -73 0 -58 -14 -73 -92
-100 -74 -25 -94 -37 -150 -83 -44 -37 -76 -97 -63 -119 3 -4 10 -90 16 -191
11 -198 25 -290 70 -466 33 -128 36 -190 13 -253 -22 -61 -24 -203 -4 -224 14
-13 22 -13 73 0 73 19 125 45 207 105 94 68 182 157 221 222 35 60 43 66 129
98 67 24 178 110 242 187 49 59 107 183 122 264 6 30 25 52 91 103 82 64 129
118 173 198 34 61 50 79 87 99 47 25 53 40 32 75 -79 136 -78 152 19 307 55
89 79 164 98 311 17 131 31 169 85 240 61 82 86 129 87 166 1 19 8 55 17 80 8
25 23 85 32 134 15 83 15 95 0 165 -10 42 -25 94 -35 116 -17 39 -17 42 2 79
27 53 48 124 48 166 0 54 -46 235 -71 283 -54 101 -52 89 -27 159 18 51 22 86
22 183 1 111 -1 124 -25 170 -15 28 -52 77 -83 110 -32 33 -63 71 -70 85 -7
14 -16 66 -18 117 -6 104 -14 121 -103 233 -30 38 -55 74 -55 79 0 14 -7 13
-46 -4z m-676 -292 c-2 -9 -20 -21 -43 -27 -37 -11 -40 -15 -43 -50 -4 -51
-25 -74 -39 -43 -20 45 47 137 100 137 21 0 28 -4 25 -17z m226 -38 c25 -19
55 -19 80 0 20 15 56 20 56 9 0 -4 -15 -39 -34 -78 -27 -56 -56 -92 -130 -165
-53 -52 -96 -98 -96 -103 0 -4 -7 -8 -16 -8 -13 0 -15 7 -10 30 8 40 -8 38
-24 -2 -18 -51 -26 -63 -41 -63 -10 0 -13 12 -11 48 l3 48 -35 -7 -36 -6 0 56
c0 39 -4 56 -13 56 -19 0 -37 -21 -37 -42 0 -10 -7 -18 -15 -18 -20 0 -19 29
1 51 9 10 17 30 17 45 0 16 11 39 26 54 14 15 37 39 50 54 31 34 46 33 92 -9
49 -44 59 -44 52 0 -9 55 0 65 54 65 26 0 57 -7 67 -15z m571 -57 c-17 -83
-111 -239 -177 -296 -23 -20 -28 -32 -28 -71 0 -39 -5 -52 -27 -73 -52 -49
-247 -182 -283 -193 -14 -4 -40 -19 -57 -33 -29 -21 -34 -22 -39 -8 -3 9 -4
25 -1 36 7 28 -15 25 -43 -5 -28 -30 -66 -35 -55 -7 4 9 12 36 17 59 6 25 22
54 40 72 27 26 29 31 14 37 -11 4 -26 -4 -46 -27 -16 -19 -30 -38 -30 -43 0
-15 -32 -46 -47 -46 -18 0 -17 34 2 50 8 7 17 27 21 46 3 18 13 39 21 45 8 7
24 31 35 53 27 53 62 98 178 226 52 59 109 123 127 143 17 20 38 37 45 37 24
0 55 -42 68 -90 l12 -45 13 48 c7 27 17 53 24 60 21 21 42 -16 48 -82 3 -34 9
-64 14 -67 17 -10 31 41 26 97 -4 43 -1 61 9 70 15 12 21 4 26 -40 5 -39 26
-36 43 5 14 35 42 74 52 74 3 0 2 -15 -2 -32z m-49 -463 c16 -8 36 -15 45 -15
19 0 29 -20 29 -56 0 -13 9 -33 20 -44 24 -24 26 -48 5 -57 -9 -3 -24 -22 -35
-42 -10 -20 -31 -47 -45 -61 -88 -83 -115 -120 -85 -120 14 0 0 -32 -29 -64
-28 -30 -107 -86 -175 -124 -33 -19 -51 -22 -91 -18 -48 6 -52 4 -90 -34 -35
-35 -52 -45 -76 -42 -4 1 -23 2 -44 4 -20 1 -39 7 -41 13 -8 19 12 90 25 87
19 -4 71 27 71 43 0 10 -11 15 -33 15 -26 0 -36 -6 -45 -25 -6 -14 -18 -25
-26 -25 -36 0 -24 26 37 84 38 36 67 72 69 87 1 13 13 28 26 34 13 6 22 19 22
32 0 15 16 35 53 61 28 22 97 81 152 131 88 81 188 149 221 151 7 0 25 -7 40
-15z m52 -331 c-10 -11 -23 -14 -35 -10 -17 7 -16 9 6 27 30 24 55 9 29 -17z
m106 -176 c9 -12 16 -31 16 -41 0 -12 5 -17 14 -14 10 4 16 -5 21 -34 4 -21
11 -41 16 -45 17 -10 9 -46 -11 -51 -10 -3 -22 -15 -26 -27 -3 -11 -19 -38
-36 -59 -56 -72 -12 -97 51 -29 45 48 54 25 13 -31 -19 -28 -62 -62 -123 -99
-52 -32 -99 -58 -105 -58 -6 0 -19 -10 -30 -23 -11 -13 -56 -36 -100 -51 -43
-16 -100 -44 -125 -62 -68 -48 -235 -102 -254 -83 -7 7 -4 15 8 23 26 20 21
33 -19 43 -64 15 -75 73 -14 73 16 0 30 5 30 10 0 6 -6 10 -14 10 -18 0 -26
12 -32 45 -3 18 2 29 23 42 37 23 47 42 44 78 -2 24 4 34 27 48 17 9 44 17 61
17 17 0 31 5 31 10 0 6 -11 10 -25 10 -48 0 -28 27 57 80 29 18 71 45 94 61
65 45 121 61 202 61 81 -1 83 0 145 81 32 43 40 45 61 15z m-64 -653 c0 -9 -6
-12 -16 -8 -13 5 -13 7 -2 14 17 11 18 11 18 -6z m-97 -21 c26 -8 20 -27 -15
-47 -23 -13 -28 -21 -20 -29 15 -15 139 8 165 30 9 8 20 13 23 9 9 -9 -5 -27
-21 -27 -17 0 -31 -58 -17 -72 8 -8 21 -6 45 6 43 20 47 20 47 1 0 -14 -24
-24 -67 -28 -25 -1 -31 -22 -10 -30 6 -3 3 -6 -9 -6 -25 -1 -54 -22 -57 -41
-5 -31 -58 -88 -87 -94 -17 -3 -30 -12 -30 -20 0 -19 -22 -26 -81 -26 -37 0
-49 -4 -49 -15 0 -11 11 -15 36 -15 55 0 37 -19 -46 -51 -85 -32 -230 -42
-230 -16 0 28 -42 52 -99 57 -51 5 -57 8 -71 37 -10 23 -22 33 -38 33 -19 0
-22 4 -16 28 10 38 13 42 37 42 35 0 49 14 42 41 -5 20 -1 28 22 39 15 8 40
22 54 32 34 22 162 88 172 88 5 0 23 6 40 14 53 23 90 35 130 42 20 3 37 10
37 14 0 18 55 20 113 4z m134 -236 c-3 -8 -6 -5 -6 6 -1 11 2 17 5 13 3 -3 4
-12 1 -19z m-842 -138 c11 -17 -5 -32 -21 -19 -7 6 -11 15 -8 20 7 12 21 11
29 -1z m93 -49 c12 -10 42 -26 67 -35 47 -19 61 -46 23 -46 -26 0 -142 53
-152 69 -20 32 29 41 62 12z m-120 -51 c9 -5 29 -14 45 -20 15 -5 27 -17 27
-26 0 -8 -3 -14 -8 -12 -66 28 -112 53 -112 60 0 11 27 10 48 -2z m672 -28 c0
-29 -76 -62 -142 -62 -66 0 -55 12 38 45 72 26 104 31 104 17z m-525 -41 c6
-1 4 -5 -4 -10 -15 -10 -53 -3 -46 9 3 5 13 7 23 5 9 -2 22 -4 27 -4z m315
-57 c62 -13 87 -14 106 -6 18 9 26 8 33 -1 6 -6 26 -31 45 -53 20 -23 36 -44
36 -48 0 -3 -18 -6 -40 -6 -30 0 -42 -5 -51 -21 -13 -25 -7 -32 46 -58 l39
-19 -55 2 c-45 1 -59 -3 -81 -24 -20 -18 -25 -29 -18 -40 8 -13 15 -12 56 3
44 16 49 16 63 2 15 -15 14 -18 -4 -31 -12 -9 -30 -12 -46 -9 -23 5 -28 2 -37
-25 -10 -28 -13 -30 -33 -19 -20 10 -26 7 -58 -29 -53 -60 -90 -74 -216 -83
-180 -13 -261 -11 -275 6 -7 8 -20 15 -30 15 -9 0 -25 9 -36 21 -10 12 -32 28
-48 36 l-30 16 23 18 c31 25 20 59 -19 59 -16 0 -32 -4 -35 -10 -9 -15 -35
-12 -35 4 0 9 12 16 33 18 27 2 34 9 43 37 10 31 15 35 50 37 59 3 116 21 153
48 18 14 50 27 71 31 21 4 41 14 44 22 9 23 4 24 -29 7 -30 -15 -89 -12 -100
5 -6 11 122 61 176 68 22 3 57 14 77 24 45 23 78 24 182 3z m180 -434 c0 -5
-2 -10 -4 -10 -3 0 -8 5 -11 10 -3 6 -1 10 4 10 6 0 11 -4 11 -10z m-38 -102
c-6 -6 -19 -7 -29 -3 -17 7 -17 8 2 15 24 9 41 2 27 -12z m-216 -39 c1 -20 4
-40 7 -46 3 -5 2 -15 -3 -23 -5 -8 -5 -22 1 -32 8 -15 6 -18 -11 -18 -14 0
-24 -9 -31 -29 -7 -19 -20 -32 -37 -36 -29 -7 -52 -23 -52 -36 0 -4 28 -9 62
-11 36 -2 63 -8 65 -15 5 -14 -57 -33 -108 -33 -20 0 -39 -3 -42 -7 -10 -9 23
-43 42 -43 14 0 14 -2 1 -10 -8 -5 -28 -10 -43 -10 -15 0 -42 -7 -59 -16 -33
-17 -73 -15 -125 7 -29 12 -37 11 -65 -6 -21 -12 -58 -20 -108 -23 -65 -4 -78
-1 -100 16 -23 19 -23 21 -7 27 15 6 7 18 -48 71 -71 69 -80 97 -32 102 35 4
34 12 -4 47 l-32 27 49 42 c26 22 61 45 78 49 17 5 117 13 221 18 105 5 213
13 240 18 28 5 70 8 95 7 45 -1 45 -1 46 -37z m182 -46 c2 -8 -5 -13 -20 -13
-34 0 -68 11 -68 22 0 14 83 5 88 -9z m-908 -271 c35 -16 35 -16 8 -19 -29 -5
-88 21 -88 38 0 11 25 5 80 -19z m772 6 c8 -21 -2 -38 -22 -38 -28 0 -35 19
-14 35 24 18 31 18 36 3z m-909 -155 c-7 -2 -19 -2 -25 0 -7 3 -2 5 12 5 14 0
19 -2 13 -5z m126 -2 c19 -12 5 -31 -23 -31 -25 0 -51 22 -39 33 9 10 45 8 62
-2z m246 -36 c81 -82 60 -96 -151 -101 -149 -4 -153 -4 -169 18 -13 20 -14 23
-1 26 8 2 23 -1 33 -6 13 -7 33 -5 68 6 44 15 50 21 53 47 4 39 26 55 79 55
37 0 48 -6 88 -45z m275 -70 c0 -16 -55 -22 -64 -6 -8 13 5 21 36 21 18 0 28
-5 28 -15z m-252 -100 c24 -10 55 -15 70 -12 15 3 34 2 41 -3 23 -14 2 -30
-40 -30 -28 0 -42 -6 -51 -20 -18 -29 -48 -26 -48 5 0 34 -22 42 -115 44 -81
2 -103 9 -90 32 11 17 178 6 233 -16z m-66 -83 c-27 -4 -37 2 -27 17 4 8 13 7
28 -1 l22 -13 -23 -3z"/>
<path d="M6790 4940 c-34 -37 -46 -68 -31 -83 14 -14 94 66 89 89 -5 29 -27
27 -58 -6z"/>
<path d="M7495 4450 c-3 -5 -1 -10 4 -10 6 0 11 5 11 10 0 6 -2 10 -4 10 -3 0
-8 -4 -11 -10z"/>
<path d="M7702 3925 c0 -16 2 -22 5 -12 2 9 2 23 0 30 -3 6 -5 -1 -5 -18z"/>
<path d="M7563 3613 c-17 -6 -16 -30 1 -36 16 -6 58 13 64 31 4 12 -39 16 -65
5z"/>
<path d="M7498 3053 c6 -2 18 -2 25 0 6 3 1 5 -13 5 -14 0 -19 -2 -12 -5z"/>
<path d="M7075 2691 c8 -14 113 -34 133 -26 15 6 15 8 -2 21 -22 16 -141 20
-131 5z"/>
<path d="M7280 2641 c0 -14 37 -23 60 -16 11 4 18 11 15 16 -8 12 -75 12 -75
0z"/>
<path d="M6955 1856 c-18 -13 -18 -15 -3 -21 25 -10 53 -2 53 15 0 20 -26 24
-50 6z"/>
<path d="M2343 2329 c-17 -5 -45 -25 -61 -45 -29 -34 -85 -63 -128 -64 -11 0
-56 11 -100 24 -133 40 -189 42 -266 11 -61 -24 -71 -25 -124 -16 -32 6 -85
11 -118 11 -34 0 -82 7 -107 17 l-47 16 -53 -38 c-30 -21 -55 -40 -57 -41 -7
-4 39 -156 58 -190 59 -107 80 -139 122 -182 29 -30 53 -69 67 -107 40 -107
66 -146 172 -251 73 -74 124 -115 171 -140 75 -39 83 -48 92 -117 9 -76 37
-126 108 -197 111 -111 329 -221 482 -242 95 -13 127 -31 308 -170 79 -61 92
-67 101 -44 5 12 33 14 159 11 84 -2 157 -4 162 -4 4 -1 25 -18 45 -39 51 -53
107 -95 171 -127 52 -27 61 -28 191 -27 92 1 149 6 178 17 23 8 71 18 106 21
74 8 115 -5 196 -61 59 -41 87 -47 217 -49 128 -1 191 13 303 69 l94 47 140
-8 c77 -4 156 -8 175 -9 19 -1 43 -6 53 -10 10 -4 20 -5 23 -3 12 13 3 130
-15 187 -11 36 -26 97 -32 137 -13 74 -11 90 33 241 13 47 10 71 -37 238 -14
50 -38 141 -52 203 -26 106 -29 112 -53 112 -14 0 -45 7 -70 16 -34 12 -81 16
-186 16 -127 -1 -147 -4 -195 -25 -110 -50 -122 -52 -181 -34 -29 9 -107 21
-173 26 -115 9 -123 9 -190 -15 -99 -36 -123 -39 -143 -21 -23 20 -125 62
-191 77 -37 9 -87 11 -156 6 l-101 -6 -29 31 c-31 33 -129 109 -141 109 -3 0
-19 11 -36 25 -20 17 -42 25 -66 25 -71 0 -155 19 -177 40 -12 12 -35 53 -50
91 -35 89 -84 143 -145 159 -198 50 -219 71 -220 215 -1 96 0 95 -104 94 -50
0 -105 -5 -123 -10z m-582 -292 c-10 -9 -11 -8 -5 6 3 10 9 15 12 12 3 -3 0
-11 -7 -18z m582 -16 c9 -16 23 -53 30 -82 10 -36 20 -55 34 -60 17 -6 20 -4
16 12 -6 21 0 23 26 9 10 -5 21 -22 24 -38 6 -30 5 -37 -42 -214 -20 -74 -31
-141 -31 -182 0 -70 -6 -78 -35 -46 -30 33 -42 25 -36 -22 5 -32 11 -44 26
-46 38 -7 60 -63 34 -89 -8 -8 -23 1 -54 34 -24 25 -50 43 -57 41 -7 -3 -14
-23 -16 -46 -2 -23 -7 -42 -12 -42 -11 0 -44 63 -53 100 -4 16 -17 29 -36 36
-26 10 -30 9 -40 -13 -7 -15 -18 -23 -28 -21 -15 3 -17 14 -15 83 l3 80 -21
-24 c-13 -15 -20 -37 -20 -62 0 -21 -4 -39 -10 -39 -14 0 -21 55 -19 170 1 58
1 139 0 181 -3 84 17 149 44 149 9 0 30 -7 47 -16 20 -10 42 -14 62 -9 17 3
49 6 72 5 60 -1 78 24 72 97 -8 88 4 106 35 54z m-479 -7 c12 -32 5 -101 -19
-168 -30 -87 -36 -92 -73 -73 -30 14 -30 14 -23 -7 8 -19 6 -65 -3 -73 -7 -7
-35 9 -40 24 -4 9 -9 48 -12 87 -5 59 -2 79 16 121 l22 50 24 -28 c13 -16 22
-33 19 -38 -4 -5 -2 -9 4 -9 14 0 48 59 56 98 7 35 19 41 29 16z m352 -91
c-10 -10 -19 5 -10 18 6 11 8 11 12 0 2 -7 1 -15 -2 -18z m234 1 c0 -8 -4 -12
-10 -9 -5 3 -10 13 -10 21 0 8 5 12 10 9 6 -3 10 -13 10 -21z m-494 -47 c-4
-24 -16 -58 -27 -76 -18 -30 -22 -32 -36 -18 -13 13 -13 21 -3 53 15 47 62
113 68 95 2 -7 1 -31 -2 -54z m128 48 c-4 -8 -8 -15 -10 -15 -2 0 -4 7 -4 15
0 8 4 15 10 15 5 0 7 -7 4 -15z m610 -72 c5 -74 31 -142 46 -127 5 5 10 42 12
83 2 48 7 76 16 79 8 2 12 -10 12 -44 0 -80 46 -308 65 -324 18 -15 25 -1 32
65 3 30 9 55 13 55 9 0 36 -166 50 -305 6 -60 18 -140 26 -177 7 -37 14 -79
14 -94 0 -25 -1 -26 -24 -11 -22 15 -25 15 -41 -4 -10 -10 -22 -40 -26 -67 -6
-39 -4 -50 13 -69 25 -27 20 -57 -10 -61 -28 -4 -42 29 -51 118 -4 48 -10 65
-21 65 -12 0 -16 -20 -21 -97 -4 -54 -9 -104 -13 -113 -14 -36 -24 -8 -32 92
-5 58 -14 108 -19 110 -12 4 -35 -66 -35 -108 0 -20 -4 -29 -12 -26 -9 2 -12
24 -10 71 2 37 -1 72 -6 79 -5 7 -15 33 -22 59 -11 41 -34 67 -47 54 -3 -3 0
-28 6 -56 14 -64 14 -130 1 -130 -12 0 -16 10 -24 60 -4 19 -22 52 -40 74 -19
21 -36 48 -39 60 -3 11 -13 41 -22 66 -22 57 -16 261 9 329 9 24 16 60 16 80
0 20 4 42 9 50 13 21 25 -5 26 -58 0 -26 5 -46 13 -48 8 -3 12 7 12 32 0 44
19 123 32 131 5 3 17 -1 27 -10 17 -15 19 -12 34 59 10 42 17 90 17 107 0 55
8 26 14 -49z m-1058 41 c-4 -9 -9 -15 -11 -12 -3 3 -3 13 1 22 4 9 9 15 11 12
3 -3 3 -13 -1 -22z m-16 -98 c0 -3 -4 -8 -10 -11 -5 -3 -10 -1 -10 4 0 6 5 11
10 11 6 0 10 -2 10 -4z m230 -67 c4 -8 17 -33 29 -57 20 -39 22 -83 3 -81 -11
0 -62 114 -62 138 0 24 19 24 30 0z m-70 -94 c0 -8 -4 -15 -10 -15 -5 0 -10 7
-10 15 0 8 5 15 10 15 6 0 10 -7 10 -15z m1380 -86 c6 -11 11 -44 10 -72 -1
-29 -1 -56 -1 -60 1 -5 15 1 31 13 46 33 59 16 62 -83 3 -85 21 -114 32 -53 4
20 14 40 24 45 22 12 68 -11 75 -39 8 -30 47 -27 47 4 0 17 -7 25 -27 30 -35
8 -75 57 -63 77 8 12 13 12 37 -2 15 -9 35 -31 45 -49 9 -17 23 -37 32 -43 9
-7 24 -49 34 -97 11 -47 28 -103 39 -125 23 -45 53 -143 53 -172 0 -11 14 -41
31 -68 38 -60 54 -165 25 -165 -13 0 -16 -10 -16 -49 0 -28 -4 -52 -9 -56 -11
-6 -41 21 -41 38 0 6 -12 28 -26 49 -26 37 -27 40 -15 107 11 71 7 105 -13 98
-7 -2 -11 -40 -12 -105 -1 -106 -10 -132 -45 -132 -17 0 -19 8 -19 63 0 40 -5
70 -15 83 -13 17 -14 15 -15 -33 0 -38 -4 -53 -14 -53 -18 0 -32 18 -40 52 -4
19 -19 34 -44 47 -28 14 -47 36 -70 78 -17 32 -38 67 -47 78 -15 19 -16 18
-12 -25 7 -71 23 -119 47 -138 14 -11 19 -23 15 -35 -10 -25 -21 -21 -35 12
-6 16 -20 37 -30 46 -11 10 -22 31 -25 49 -13 61 -57 161 -81 181 -29 25 -43
85 -50 214 -2 53 -10 119 -16 148 -8 40 -8 59 2 82 19 47 42 40 40 -11 -1 -24
-1 -51 -1 -60 1 -21 21 -25 21 -4 0 7 8 24 19 37 10 13 21 45 25 72 8 51 19
59 36 26z m1188 -225 c26 -25 71 -57 100 -70 28 -13 52 -27 52 -32 0 -4 6 -17
14 -27 14 -19 15 -19 35 -1 23 21 12 31 161 -134 65 -73 86 -120 52 -120 -11
0 -27 -3 -36 -6 -23 -9 -3 -40 42 -63 20 -10 48 -31 61 -45 l24 -25 -29 8
c-16 5 -51 17 -77 26 -26 10 -51 15 -54 12 -2 -3 8 -28 23 -56 32 -56 27 -73
-15 -48 -64 38 -66 19 -5 -59 25 -32 52 -71 60 -86 13 -25 13 -28 -2 -28 -19
0 -133 115 -172 173 -13 20 -29 37 -33 37 -17 0 -9 -45 15 -92 13 -27 20 -48
15 -48 -20 0 -164 148 -231 238 -91 122 -108 153 -124 220 -17 71 -18 65 6 92
11 13 20 29 20 36 0 7 10 14 23 16 31 4 37 62 8 78 -12 6 -21 20 -21 30 0 34
37 23 88 -26z m-2188 0 c20 -53 7 -150 -16 -113 -13 21 -18 139 -5 139 6 0 16
-12 21 -26z m2738 -26 c47 -63 65 -95 60 -110 -5 -14 -128 130 -128 149 0 28
29 11 68 -39z m-1321 -25 c-4 -17 -4 -17 -12 0 -4 9 -4 25 0 35 8 16 8 16 12
0 3 -10 3 -26 0 -35z m113 37 c0 -6 -7 -27 -15 -47 -13 -30 -17 -33 -30 -23
-20 17 -19 36 5 60 22 22 40 26 40 10z m118 -23 c2 -15 1 -27 -2 -27 -18 0
-36 15 -36 29 0 41 33 39 38 -2z m-1738 -18 c0 -16 -4 -29 -10 -29 -5 0 -10
16 -10 36 0 21 4 33 10 29 6 -3 10 -19 10 -36z m2170 10 c0 -10 -4 -19 -9 -19
-10 0 -21 36 -14 44 10 10 23 -5 23 -25z m-482 -46 c-4 -57 18 -75 29 -23 9
46 30 36 43 -20 7 -28 16 -53 21 -56 18 -11 39 18 39 54 0 27 3 33 12 24 6 -6
12 -22 14 -34 1 -13 3 -26 3 -29 1 -4 12 -10 26 -13 14 -4 35 -17 47 -31 17
-19 25 -22 40 -14 24 13 16 44 -23 80 -29 27 -37 53 -20 64 12 7 51 -42 51
-64 0 -10 24 -38 54 -63 29 -26 65 -68 78 -95 61 -115 167 -258 286 -383 39
-42 72 -82 72 -88 0 -15 -37 -35 -50 -27 -6 4 -17 21 -26 38 -9 18 -31 46 -48
63 -38 38 -69 82 -76 109 -8 27 -36 27 -32 0 2 -11 17 -40 33 -65 16 -25 40
-68 54 -97 13 -28 29 -54 34 -58 15 -9 14 -55 -1 -55 -15 0 -48 30 -48 45 0
16 -48 60 -57 52 -3 -4 -1 -18 5 -32 17 -38 15 -55 -8 -55 -13 0 -26 11 -34
28 -6 15 -32 47 -55 72 -29 31 -49 63 -60 99 -9 30 -22 56 -30 59 -21 7 -6
-83 19 -115 11 -14 20 -37 20 -50 0 -37 -41 -28 -52 12 -5 20 -21 37 -48 53
-31 17 -40 29 -40 49 0 21 -3 24 -12 15 -21 -21 -54 -14 -66 14 -14 30 -32 23
-32 -12 0 -17 -6 -24 -18 -24 -21 0 -42 21 -65 65 -9 17 -38 53 -64 82 -33 35
-62 83 -92 149 -75 169 -109 276 -81 259 5 -3 14 -24 20 -45 14 -52 44 -55 60
-6 21 64 82 118 78 69z m-1385 -17 c3 -8 0 -22 -8 -33 -13 -17 -14 -17 -20 0
-8 20 0 47 14 47 5 0 11 -6 14 -14z m2502 -66 c4 -6 1 -18 -6 -26 -11 -14 -13
-14 -21 0 -15 26 12 51 27 26z m-1860 -270 c24 -75 27 -92 16 -102 -11 -10
-14 -10 -18 -1 -3 7 -13 23 -23 35 -19 22 -19 22 -20 3 0 -24 -26 -65 -41 -65
-6 0 -9 17 -7 38 2 27 9 40 26 47 20 9 21 15 16 57 -7 47 -1 78 13 78 4 0 21
-41 38 -90z m-139 -85 c3 -20 4 -39 0 -42 -12 -12 -36 20 -36 48 0 43 28 37
36 -6z m148 -70 c-6 -16 -24 -21 -24 -7 0 11 11 22 21 22 5 0 6 -7 3 -15z
m934 -148 c2 -10 -3 -17 -12 -17 -10 0 -16 9 -16 21 0 24 23 21 28 -4z m-83
-97 c0 -21 -5 -25 -35 -28 -19 -2 -41 -9 -49 -15 -10 -9 -16 -7 -27 8 -19 25
-13 39 17 43 13 2 28 8 34 13 5 6 21 9 35 7 19 -2 25 -9 25 -28z m-175 0 c0
-5 -4 -10 -10 -10 -5 0 -10 5 -10 10 0 6 5 10 10 10 6 0 10 -4 10 -10z"/>
<path d="M1720 1810 c0 -5 5 -10 10 -10 6 0 10 5 10 10 0 6 -4 10 -10 10 -5 0
-10 -4 -10 -10z"/>
<path d="M2640 1675 c0 -22 4 -34 10 -30 6 3 10 17 10 30 0 13 -4 27 -10 30
-6 4 -10 -8 -10 -30z"/>
<path d="M3600 740 c0 -40 15 -54 26 -25 8 20 -4 65 -16 65 -6 0 -10 -18 -10
-40z"/>
<path d="M4315 1210 c-3 -6 1 -13 10 -16 19 -8 30 0 20 15 -8 14 -22 14 -30 1z"/>
<path d="M4254 1165 c-6 -25 10 -65 26 -65 6 0 10 8 11 18 0 9 2 27 5 38 6 32
-34 40 -42 9z"/>
<path d="M3860 795 c0 -8 5 -15 10 -15 6 0 10 7 10 15 0 8 -4 15 -10 15 -5 0
-10 -7 -10 -15z"/>
<path d="M4217 788 c-5 -17 3 -48 13 -48 4 0 13 7 20 15 10 12 10 18 0 30 -15
18 -27 19 -33 3z"/>
<path d="M4240 637 c0 -25 17 -47 37 -47 19 0 16 23 -6 48 -24 28 -31 28 -31
-1z"/>
</g>
 <!-- verde -->
 <g transform="translate(0.000000,829.000000) scale(0.100000,-0.100000)"
fill="#00FF00" stroke="none">
<path d="M1890 8269 c0 -12 5 -50 12 -85 10 -57 9 -70 -12 -141 -18 -59 -24
-102 -24 -178 0 -115 14 -181 59 -280 53 -118 55 -127 60 -255 2 -69 8 -151
13 -182 8 -55 57 -163 122 -268 22 -35 29 -61 33 -120 6 -86 35 -168 90 -251
54 -81 87 -119 129 -145 45 -28 61 -58 78 -139 7 -33 35 -118 63 -190 50 -127
53 -132 136 -218 100 -103 94 -93 129 -200 56 -170 159 -308 305 -410 37 -26
75 -61 85 -77 9 -16 34 -60 56 -97 21 -38 55 -80 75 -95 20 -15 63 -47 96 -71
107 -80 121 -97 145 -178 12 -41 31 -86 42 -101 10 -15 74 -70 141 -121 67
-52 138 -112 158 -134 19 -21 61 -90 94 -153 49 -98 71 -129 150 -210 98 -101
162 -188 200 -273 17 -37 43 -68 88 -107 70 -59 115 -125 141 -205 10 -27 27
-68 39 -91 l22 -41 70 19 c39 10 100 22 136 27 36 4 76 14 89 21 17 9 43 10
99 4 42 -4 110 -8 151 -9 66 0 84 4 150 37 96 46 135 56 256 66 90 7 103 6
154 -15 75 -31 84 -30 76 8 -3 17 -6 40 -6 49 0 29 -99 168 -171 241 -61 62
-69 75 -93 155 -31 99 -41 117 -108 195 -48 56 -76 78 -181 140 -40 23 -60 42
-63 59 -33 148 -56 194 -134 264 -90 81 -127 124 -166 192 -56 98 -64 121 -64
170 0 51 -33 157 -59 190 -38 48 -129 117 -197 149 -53 24 -79 43 -98 71 -14
21 -26 43 -26 48 0 5 -25 37 -56 72 -44 51 -76 75 -160 120 -58 31 -111 66
-118 78 -8 11 -17 41 -20 65 -10 68 -81 210 -129 259 -23 24 -69 57 -102 74
-75 38 -105 65 -105 95 0 35 -63 196 -99 251 -41 64 -60 81 -134 117 -68 33
-75 44 -117 192 -19 66 -89 185 -161 275 -18 22 -24 46 -30 132 -6 92 -13 121
-54 225 -33 85 -59 134 -89 169 l-43 51 4 68 c7 100 -9 171 -62 260 -48 83
-58 138 -30 167 8 8 15 30 15 48 0 19 9 59 20 91 11 31 20 77 20 102 l0 45
-545 0 -545 0 0 -21z"/>
<path d="M5675 2339 c-103 -21 -187 -24 -318 -8 -81 9 -105 8 -200 -10 -59
-12 -130 -21 -158 -21 -46 0 -49 -1 -39 -19 5 -11 10 -36 10 -57 0 -20 16 -74
36 -120 l36 -84 4 -192 c2 -106 3 -247 3 -313 -1 -106 2 -128 26 -190 14 -38
30 -83 35 -100 53 -187 56 -231 21 -318 -23 -57 -24 -61 -11 -160 7 -56 18
-118 25 -137 7 -19 18 -67 25 -106 12 -65 11 -76 -9 -142 -33 -106 -41 -212
-22 -295 l15 -67 574 0 574 0 -6 88 c-4 48 -14 113 -23 145 -15 54 -15 60 3
100 16 36 19 67 19 213 l0 171 -43 62 -43 61 4 88 c2 48 12 114 21 147 17 56
17 65 1 155 -9 52 -21 115 -27 140 -5 25 -14 92 -18 150 -5 58 -20 152 -34
210 -33 142 -41 251 -22 315 22 74 38 201 31 235 -5 23 -17 34 -62 55 -51 23
-66 25 -197 24 -98 0 -168 -6 -231 -20z"/>
</g>
<g transform="translate(0.000000,829.000000) scale(0.100000,-0.100000)"
fill="#000000" stroke="none">
<path d="M1900 8258 c0 -17 5 -57 12 -88 10 -49 9 -63 -10 -120 -49 -154 -38
-296 38 -483 48 -118 50 -125 50 -222 0 -172 19 -249 98 -394 63 -116 70 -132
75 -201 3 -45 15 -97 29 -130 32 -75 111 -193 149 -222 91 -70 98 -79 115
-163 16 -77 90 -275 120 -323 9 -13 49 -58 90 -100 48 -50 80 -93 90 -122 95
-256 161 -353 319 -470 85 -63 96 -75 136 -151 24 -45 53 -90 64 -99 69 -62
107 -93 165 -132 70 -48 84 -69 112 -167 9 -35 24 -74 32 -86 8 -13 71 -66
139 -118 156 -120 191 -160 257 -294 46 -92 67 -122 145 -203 86 -89 164 -195
209 -282 10 -20 52 -67 94 -104 55 -50 82 -83 103 -128 16 -34 29 -67 29 -75
0 -18 59 -121 69 -121 4 0 43 9 86 20 43 11 92 20 109 20 17 0 55 9 85 21 54
20 57 20 140 3 100 -19 188 -14 236 16 68 42 164 70 272 79 83 8 112 7 132 -4
14 -7 43 -17 64 -23 l37 -10 0 34 c0 70 -53 155 -176 284 -66 70 -73 81 -98
165 -40 130 -124 233 -249 303 -86 49 -95 60 -112 141 -19 94 -59 156 -154
241 -52 46 -87 89 -127 157 -50 84 -57 102 -65 173 -5 44 -20 103 -32 132 -31
70 -128 163 -193 185 -60 21 -113 62 -140 110 -48 83 -148 172 -257 226 -53
27 -99 56 -101 65 -3 10 -10 41 -16 70 -5 30 -27 90 -49 135 -44 94 -96 149
-186 197 -68 36 -105 72 -105 102 0 26 -42 142 -74 206 -38 76 -74 111 -144
145 -35 17 -70 40 -78 53 -9 12 -28 68 -44 124 -28 103 -76 189 -155 278 -27
32 -30 44 -41 157 -12 124 -12 125 -89 301 -13 28 -38 69 -58 90 l-34 39 -5
122 -5 123 -48 82 c-54 93 -65 142 -43 196 20 47 58 211 58 246 l0 26 -200 0
c-161 0 -200 -3 -200 -13 0 -8 -9 -22 -20 -32 -18 -16 -20 -16 -20 -2 0 10 4
17 8 17 5 0 9 7 9 15 0 11 -11 15 -36 15 -32 0 -37 -4 -47 -32 -6 -18 -15 -41
-19 -51 -6 -15 -3 -17 19 -13 14 2 30 7 36 11 6 3 7 0 4 -9 -3 -9 -11 -16 -18
-16 -6 0 -20 -15 -30 -32 -11 -18 -27 -41 -37 -50 -10 -10 -30 -34 -46 -55
-62 -83 -116 -133 -130 -120 -2 3 3 20 12 37 11 22 13 36 7 42 -13 13 -58 2
-74 -18 -33 -40 -145 -154 -151 -154 -33 0 89 151 134 165 11 4 19 12 19 19 0
20 31 43 78 57 26 8 42 18 42 28 0 9 3 27 7 40 6 22 4 23 -23 17 -16 -4 -42
-22 -59 -41 -30 -33 -95 -56 -95 -33 0 22 39 73 69 91 17 10 31 22 31 27 0 4
14 13 30 19 24 8 30 16 30 40 0 26 -4 31 -23 31 -16 0 -28 -9 -35 -25 -13 -28
-42 -24 -42 6 0 18 -9 19 -150 19 l-150 0 0 -32z m910 -23 c0 -25 -31 -65 -50
-65 -16 0 -12 22 13 57 26 39 37 42 37 8z m-140 -176 c0 -19 -49 -43 -77 -37
-15 3 -12 10 20 43 31 31 40 36 48 24 5 -8 9 -21 9 -30z m-126 19 c-4 -7 -15
-22 -24 -33 -9 -11 -30 -43 -46 -72 -23 -43 -26 -55 -16 -65 11 -11 18 -7 40
19 15 17 35 43 45 57 32 47 42 33 45 -60 l1 -85 -28 -10 c-27 -9 -46 -40 -34
-53 3 -3 18 1 32 8 14 8 42 20 61 27 19 7 47 21 62 31 14 10 29 18 32 18 14 0
-20 -69 -50 -100 -18 -19 -43 -49 -56 -67 -13 -18 -44 -58 -69 -90 -25 -32
-60 -85 -79 -117 -39 -69 -114 -151 -129 -142 -7 5 -5 15 5 31 20 30 12 55
-16 55 -19 0 -20 1 -4 25 19 29 11 45 -22 45 -18 0 -49 -24 -110 -86 -47 -47
-88 -84 -91 -81 -16 17 16 67 91 143 69 69 89 84 115 84 17 0 31 3 31 7 0 15
-44 53 -61 53 -23 0 -83 -52 -106 -91 -19 -31 -43 -39 -43 -13 0 27 92 135
127 149 41 17 42 30 3 50 -16 9 -30 18 -30 21 0 8 47 62 124 144 34 36 75 83
91 105 35 48 93 105 106 105 6 0 7 -6 3 -12z m-450 -56 c-20 -35 -64 -60 -64
-38 0 15 69 80 77 72 3 -2 -3 -18 -13 -34z m556 -545 c0 -16 52 -77 66 -77 7
0 18 -9 23 -19 8 -14 6 -25 -9 -44 -35 -44 -23 -75 20 -54 15 8 29 27 35 52
11 38 38 66 51 52 4 -4 -5 -24 -19 -44 -14 -21 -43 -78 -63 -128 -41 -97 -83
-174 -120 -218 -13 -15 -28 -46 -34 -68 -16 -57 -45 -106 -96 -161 -24 -26
-44 -53 -44 -60 0 -7 -9 -24 -20 -38 -11 -14 -20 -33 -20 -42 0 -9 -14 -26
-31 -38 -24 -18 -29 -28 -27 -54 2 -22 -1 -31 -12 -31 -27 0 -22 35 14 108 38
76 115 187 130 187 8 0 46 39 46 47 0 2 -5 13 -10 24 -24 43 -53 18 -153 -133
-78 -118 -103 -143 -91 -90 9 37 107 185 135 204 18 12 23 25 25 64 1 27 7 62
13 77 19 49 13 73 -25 102 -30 23 -40 26 -67 18 -20 -5 -41 -23 -57 -47 -13
-21 -26 -34 -27 -29 -5 14 45 106 110 206 31 48 65 104 76 125 27 54 107 140
134 144 21 4 47 -16 47 -35z m-426 -126 c3 -5 -1 -12 -10 -15 -22 -9 -24 -8
-24 9 0 16 25 21 34 6z m-91 -77 c7 -7 -14 -44 -25 -44 -5 0 -8 11 -8 25 0 23
18 34 33 19z m831 -37 c-7 -18 -24 -23 -24 -8 0 22 13 42 22 33 5 -5 6 -16 2
-25z m-754 -36 c0 -33 -16 -49 -33 -32 -7 7 -7 18 1 36 16 34 32 32 32 -4z
m790 -85 c0 -7 -9 -21 -20 -31 -20 -18 -20 -17 -20 13 0 17 6 32 13 35 16 6
27 -1 27 -17z m-50 -56 c0 -28 -46 -74 -76 -76 -16 -1 -32 -3 -35 -3 -18 -3
-49 -46 -49 -68 0 -21 3 -24 12 -15 30 30 78 -3 78 -53 0 -18 -6 -50 -13 -71
-7 -22 -12 -47 -9 -57 3 -16 6 -16 33 3 36 26 45 21 53 -30 7 -47 31 -54 46
-12 22 59 56 115 72 120 9 2 19 11 21 21 4 15 5 15 6 -1 0 -9 -21 -60 -49
-113 -27 -54 -55 -114 -61 -134 -11 -34 -89 -222 -149 -361 -16 -36 -34 -86
-40 -113 -17 -65 -30 -68 -30 -7 0 37 6 59 20 77 11 14 20 33 20 43 0 9 -9 25
-20 35 -11 10 -20 31 -20 47 0 40 -34 39 -49 -2 -5 -17 -17 -30 -27 -30 -13 0
-15 6 -9 37 4 20 13 42 20 48 29 21 58 145 35 145 -5 0 -10 -6 -10 -13 0 -8
-11 -24 -24 -37 -14 -12 -28 -35 -31 -51 -4 -16 -13 -29 -21 -29 -18 0 -19 44
-1 58 15 13 22 78 9 86 -18 11 -53 -27 -82 -90 -17 -35 -35 -64 -40 -64 -17 0
-11 71 9 104 10 17 22 45 26 63 3 17 13 37 21 44 9 7 22 26 31 43 9 17 27 44
40 60 22 26 23 31 9 44 -13 14 -19 14 -43 2 -15 -8 -31 -16 -36 -18 -10 -5 12
46 35 79 9 14 47 84 83 156 60 118 103 182 106 157 1 -5 2 -18 3 -29 2 -36 33
-29 61 15 26 40 26 40 50 23 13 -10 24 -25 25 -33z m-531 -109 c8 -15 5 -20
-16 -30 -32 -15 -37 -10 -22 23 14 31 25 33 38 7z m-49 -60 c0 -5 -7 -14 -15
-21 -12 -10 -15 -10 -15 2 0 8 3 18 7 21 9 10 23 9 23 -2z m650 -47 c0 -41
-73 -92 -91 -63 -9 14 -12 72 -5 80 2 2 25 4 50 4 40 0 46 -3 46 -21z m220
-284 c1 -8 2 -24 1 -35 -2 -19 -3 -19 -21 4 -20 23 -26 52 -13 65 9 8 31 -14
33 -34z m-143 8 c-22 -89 -29 -113 -42 -132 -35 -49 -7 -87 63 -86 22 1 31 9
47 42 39 82 60 55 49 -64 -6 -66 -11 -85 -36 -115 -32 -41 -35 -88 -6 -107 24
-14 31 -4 39 57 7 56 46 164 65 184 35 36 14 -88 -37 -222 -14 -37 -17 -64
-13 -105 5 -43 0 -74 -19 -140 -14 -47 -29 -102 -32 -122 -4 -20 -22 -61 -41
-90 -30 -47 -41 -88 -35 -135 1 -7 -5 -13 -12 -13 -28 0 -39 28 -35 87 3 56 2
58 -22 58 -24 0 -25 -3 -28 -72 -3 -74 -9 -85 -32 -58 -15 18 -6 94 17 142 16
34 14 94 -3 100 -11 4 -30 -34 -36 -72 -4 -25 -38 -34 -38 -10 0 39 33 126 61
161 16 21 28 42 26 48 -2 6 -20 12 -40 14 -24 2 -43 11 -56 28 -10 13 -24 24
-30 24 -13 0 -15 26 -2 34 5 3 12 32 15 63 4 32 20 92 36 133 15 41 43 113 60
160 40 108 100 230 113 230 5 0 7 -10 4 -22z m-654 -11 c3 -8 1 -20 -4 -28 -6
-10 -9 -7 -9 14 0 29 5 35 13 14z m722 3 c10 -16 -5 -50 -21 -50 -8 0 -14 10
-14 23 0 34 21 50 35 27z m325 -244 c0 -14 -5 -28 -10 -31 -13 -8 -24 20 -16
40 9 24 26 17 26 -9z m-876 -22 c8 -22 8 -54 -1 -54 -23 1 -35 20 -29 44 7 29
21 34 30 10z m126 -105 c0 -10 -4 -19 -9 -19 -12 0 -23 29 -15 41 8 14 24 0
24 -22z m750 -146 c0 -24 -2 -43 -4 -43 -10 0 -37 100 -30 111 13 21 34 -22
34 -68z m90 6 c0 -16 -4 -29 -10 -29 -5 0 -10 16 -10 36 0 21 4 33 10 29 6 -3
10 -19 10 -36z m-960 -10 c10 -23 10 -33 1 -42 -15 -15 -31 7 -31 46 0 36 14
34 30 -4z m90 1 c7 -14 8 -26 0 -39 -5 -11 -10 -34 -10 -51 0 -49 -24 -31 -30
23 -9 73 15 113 40 67z m790 -160 c4 0 7 -30 7 -67 l-2 -67 55 0 55 0 12 49
c18 73 22 80 34 68 8 -8 5 -36 -9 -94 -11 -46 -28 -127 -37 -179 -15 -79 -77
-295 -89 -307 -2 -2 -14 1 -28 6 -31 12 -48 -12 -48 -66 -1 -21 -5 -58 -11
-83 -6 -25 -13 -63 -17 -85 -4 -25 -13 -41 -23 -43 -23 -4 -29 30 -13 75 7 21
13 57 14 81 0 24 7 57 16 73 19 38 15 93 -8 97 -22 4 -33 -18 -59 -119 -24
-96 -35 -114 -45 -75 -7 29 7 95 37 168 26 63 25 82 -3 75 -26 -7 -58 9 -58
29 0 8 7 26 16 39 28 43 0 135 -38 123 -9 -3 -13 -24 -13 -61 0 -31 -4 -57
-10 -57 -20 0 -1 172 23 217 7 12 12 54 12 93 0 39 6 86 14 105 13 31 19 35
51 35 22 0 47 8 63 21 l26 20 34 -35 c18 -20 37 -36 42 -36z m-594 -14 c7 -29
-1 -46 -22 -46 -9 0 -14 11 -14 35 0 41 26 49 36 11z m887 -168 c2 -7 0 -26
-5 -43 -20 -64 -18 -62 -33 -42 -13 17 -8 58 10 87 9 14 22 13 28 -2z m113
-97 c11 -64 6 -95 -12 -83 -14 8 -34 76 -34 115 0 19 5 27 18 27 14 0 20 -12
28 -59z m-163 -33 c2 -7 -2 -28 -10 -45 -7 -18 -10 -34 -6 -34 5 -1 21 -2 38
-3 28 -1 29 -2 26 -47 -3 -57 18 -82 47 -55 10 9 31 16 46 16 21 0 29 7 37 30
12 33 29 40 29 13 0 -10 -14 -53 -31 -95 -23 -58 -36 -78 -50 -78 -32 0 -31
-18 3 -55 30 -33 36 -35 61 -26 24 9 27 8 27 -11 0 -19 -19 -86 -65 -223 -9
-27 -21 -70 -26 -95 -13 -62 -24 -71 -84 -62 l-50 7 -5 60 c-4 51 -8 60 -26
63 -26 4 -51 -31 -57 -79 -2 -23 -4 -16 -5 21 -1 30 5 73 13 95 31 85 11 118
-32 56 -16 -22 -32 -40 -37 -41 -5 0 -6 23 -1 53 4 28 10 86 15 127 4 41 22
129 39 195 17 66 33 139 37 163 6 40 23 61 51 62 6 0 13 -6 16 -12z m-698
-125 c10 -16 29 -37 42 -48 19 -15 24 -28 21 -50 l-4 -30 -16 37 c-9 20 -29
42 -45 50 -19 9 -29 22 -31 41 -4 35 11 35 33 0z m1109 -65 c-3 -46 -15 -109
-26 -142 -25 -72 -21 -157 12 -231 24 -57 36 -66 68 -58 27 6 47 -16 73 -81
19 -48 38 -52 57 -13 14 29 32 28 32 -3 0 -11 -11 -50 -25 -87 -51 -136 -92
-259 -104 -310 -7 -29 -19 -57 -27 -64 -23 -19 -44 -3 -44 36 0 28 -4 35 -19
35 -22 0 -31 -19 -31 -66 0 -24 -5 -34 -15 -34 -23 0 -20 72 4 101 19 24 19
24 -7 71 -15 26 -33 50 -41 53 -26 10 -51 -5 -51 -31 0 -38 -30 -122 -46 -128
-8 -3 -14 1 -14 9 0 28 31 145 50 190 26 60 26 85 0 85 -22 0 -50 -46 -50 -83
0 -13 -9 -32 -20 -42 -13 -12 -20 -31 -20 -54 0 -27 -3 -32 -12 -23 -8 8 -9
21 -1 49 6 21 19 81 29 133 9 52 21 99 25 104 5 6 9 29 9 53 0 38 19 108 52
196 7 18 18 27 33 27 26 0 35 17 35 68 0 54 32 230 56 310 2 6 8 12 14 12 8 0
9 -25 4 -82z m90 26 c10 -27 7 -52 -9 -58 -12 -4 -15 3 -15 34 0 40 13 53 24
24z m-254 -109 c-6 -19 -16 -35 -21 -35 -16 0 -10 58 8 76 22 22 28 5 13 -41z
m-724 -13 c-11 -10 -15 4 -8 28 l7 25 3 -23 c2 -13 1 -26 -2 -30z m1024 -94
c-1 -85 -33 -208 -56 -215 -13 -4 -34 41 -37 82 -1 22 3 30 18 33 29 6 35 20
35 93 0 60 11 89 32 89 4 0 8 -37 8 -82z m80 -59 c0 -74 -4 -99 -15 -109 -8
-7 -15 -29 -15 -49 0 -44 -13 -66 -34 -58 -21 8 -20 44 3 88 13 23 21 67 26
134 4 55 10 104 12 109 13 21 23 -27 23 -115z m-873 -107 c-6 -23 -15 -42 -19
-42 -12 0 -10 37 4 82 10 33 13 37 19 21 4 -11 2 -38 -4 -61z m906 -57 c4 -8
2 -17 -3 -20 -6 -4 -10 3 -10 14 0 25 6 27 13 6z m223 -9 c3 -14 3 -29 0 -34
-8 -14 -9 -132 -1 -184 9 -56 -9 -68 -19 -13 -3 19 -9 51 -12 70 -8 45 5 185
17 185 5 0 11 -11 15 -24z m-99 -68 c-3 -7 -5 -2 -5 12 0 14 2 19 5 13 2 -7 2
-19 0 -25z m173 -64 c0 -48 -16 -59 -26 -19 -8 31 3 78 16 70 6 -3 10 -26 10
-51z m-166 -80 c6 -47 4 -53 -19 -68 -16 -11 -25 -26 -25 -43 0 -24 2 -25 39
-19 34 5 39 3 45 -17 3 -12 15 -26 28 -32 19 -8 24 -19 26 -57 3 -50 18 -62
42 -33 23 28 51 167 44 219 -5 38 -3 47 7 44 10 -3 15 -30 17 -97 3 -95 -20
-218 -54 -285 -8 -16 -14 -47 -14 -68 0 -41 -42 -176 -66 -215 -8 -13 -23 -23
-33 -23 -12 0 -21 -12 -29 -37 -20 -66 -42 -168 -42 -194 0 -13 -4 -30 -9 -38
-18 -28 -34 28 -29 100 4 51 13 81 37 123 35 63 23 76 -24 26 -22 -23 -32 -48
-46 -122 -10 -51 -18 -110 -18 -130 -1 -36 -17 -52 -26 -25 -2 6 -6 60 -8 119
-4 103 -3 108 20 130 17 16 23 31 21 53 -4 43 -35 46 -51 6 -6 -17 -16 -30
-22 -28 -19 7 -7 66 19 98 22 25 26 40 24 73 -2 33 -7 41 -23 41 -16 0 -22
-10 -30 -49 -12 -53 -35 -75 -35 -33 0 14 4 47 9 74 36 179 49 229 83 315 21
53 38 107 38 121 0 20 6 27 30 32 36 8 50 30 50 82 1 51 15 24 24 -43z m-830
-86 c3 -27 2 -48 -3 -48 -11 0 -21 36 -21 80 0 48 16 26 24 -32z m1167 -90 c0
-7 0 -45 -1 -85 -1 -51 4 -85 19 -120 11 -26 22 -66 26 -88 3 -22 13 -63 22
-92 8 -29 13 -60 9 -69 -6 -15 -9 -15 -30 5 -20 18 -25 38 -35 138 -7 65 -19
126 -27 137 -14 21 -20 166 -7 179 10 11 23 8 24 -5z m98 -126 c-1 -9 3 -30
10 -47 7 -16 15 -64 19 -105 6 -60 10 -75 25 -78 12 -3 19 5 23 27 4 17 10 31
15 31 12 0 11 -44 -1 -56 -5 -5 -12 -56 -15 -113 -3 -58 -9 -109 -12 -113 -3
-5 -16 -13 -29 -18 -13 -5 -24 -16 -24 -24 0 -28 20 -66 34 -66 23 0 58 58 62
103 8 92 16 137 25 137 5 0 9 -31 9 -69 0 -64 -20 -169 -54 -286 -9 -27 -20
-68 -27 -90 -27 -91 -75 -162 -96 -141 -4 4 -7 30 -8 58 -1 29 -6 53 -13 56
-6 2 -16 19 -22 38 -14 42 -31 43 -80 4 -48 -38 -58 -25 -25 32 17 31 32 44
52 48 57 10 27 80 -34 80 -18 0 -23 -6 -23 -25 0 -26 -23 -54 -73 -87 -19 -13
-28 -31 -34 -70 -9 -57 -27 -73 -37 -32 -6 24 5 72 35 151 5 13 6 36 3 52 -5
22 1 36 27 66 30 34 31 38 15 47 -29 16 -12 108 34 182 21 34 44 87 51 119 7
31 15 57 19 57 13 0 19 -41 13 -90 -5 -40 -2 -53 16 -76 13 -16 21 -41 21 -63
0 -29 7 -41 34 -63 19 -16 41 -28 49 -28 24 0 27 27 6 46 -26 24 -25 54 2 51
36 -4 44 24 24 84 -10 30 -22 99 -26 154 -4 55 -11 120 -14 145 l-6 45 16 -28
c9 -15 15 -36 14 -45z m-1021 -104 c-3 -22 -4 -23 -15 -3 -7 14 -8 27 0 45 10
25 10 25 14 3 3 -13 3 -33 1 -45z m92 13 c0 -36 -19 -91 -32 -91 -9 0 -2 105
9 123 9 15 23 -5 23 -32z m114 -37 c18 -17 22 -69 6 -79 -16 -10 -43 42 -36
70 7 29 10 30 30 9z m1130 -240 c10 -25 7 -62 -5 -70 -19 -12 -32 13 -25 50 7
38 20 46 30 20z m-84 -118 c0 -8 7 -16 15 -20 8 -3 15 -18 15 -33 0 -15 -4
-23 -8 -17 -4 6 -15 13 -24 17 -19 7 -26 67 -8 67 6 0 10 -6 10 -14z m160 4
c0 -5 -5 -10 -11 -10 -5 0 -7 5 -4 10 3 6 8 10 11 10 2 0 4 -4 4 -10z m-37
-94 c10 -20 20 -51 24 -68 5 -27 4 -29 -18 -26 -19 2 -26 12 -34 48 -5 25 -14
51 -18 58 -10 15 1 34 16 29 7 -2 20 -20 30 -41z m90 -1 c6 -17 16 -36 24 -43
7 -8 10 -18 7 -24 -9 -15 -63 53 -64 80 0 32 21 23 33 -13z m-169 -33 c16 -32
7 -58 -18 -49 -22 9 -21 77 0 77 2 0 10 -13 18 -28z m56 -111 c0 -9 -7 -26
-15 -37 -8 -10 -15 -36 -15 -56 0 -29 -8 -47 -36 -78 -35 -39 -64 -52 -64 -28
0 6 14 40 30 75 17 34 30 66 30 71 0 4 11 24 26 45 25 38 44 41 44 8z m-125
-40 c-20 -46 -60 -87 -69 -73 -16 26 58 142 77 123 7 -7 5 -22 -8 -50z m-287
-48 c-4 -22 -48 -31 -48 -10 0 19 10 27 32 27 13 0 18 -6 16 -17z m-108 -37
c0 -31 -10 -56 -21 -56 -10 0 -12 63 -2 73 13 14 23 6 23 -17z"/>
<path d="M2380 7840 c-28 -28 -26 -60 4 -60 25 0 56 36 56 65 0 22 -36 19 -60
-5z"/>
<path d="M2423 7545 c-19 -21 -16 -27 7 -15 11 6 20 15 20 20 0 14 -13 12 -27
-5z"/>
<path d="M2542 7378 c-14 -14 -16 -28 -3 -28 9 0 24 30 18 36 -2 2 -9 -2 -15
-8z"/>
<path d="M2470 7290 c-10 -6 -11 -13 -5 -19 6 -6 16 -7 25 -1 10 6 11 13 5 19
-6 6 -16 7 -25 1z"/>
<path d="M2538 7085 c-37 -32 -37 -60 -1 -37 10 6 38 63 30 62 -1 0 -14 -12
-29 -25z"/>
<path d="M2685 6570 c-3 -5 -1 -10 4 -10 6 0 11 5 11 10 0 6 -2 10 -4 10 -3 0
-8 -4 -11 -10z"/>
<path d="M2807 6567 c-11 -29 -9 -43 4 -30 6 6 9 19 7 29 -3 18 -4 18 -11 1z"/>
<path d="M2870 6480 c-8 -5 -11 -12 -7 -16 4 -4 13 -2 19 4 15 15 7 24 -12 12z"/>
<path d="M4180 4852 c0 -16 32 -52 46 -52 24 0 16 36 -11 48 -31 14 -35 15
-35 4z"/>
<path d="M4854 3918 c-7 -11 29 -48 47 -48 5 0 9 8 9 18 0 23 -46 47 -56 30z"/>
<path d="M4954 3725 c19 -14 36 -12 36 6 0 5 -12 9 -27 9 -27 -1 -27 -1 -9
-15z"/>
<path d="M2365 8263 c8 -34 11 -37 28 -30 8 3 17 17 19 31 5 23 2 26 -24 26
-28 0 -30 -2 -23 -27z"/>
<path d="M2353 8103 c-15 -5 -18 -33 -4 -33 8 0 25 30 19 35 -2 1 -9 0 -15 -2z"/>
<path d="M8388 6453 c-10 -2 -18 -8 -18 -11 0 -10 39 -72 45 -72 3 0 5 20 5
45 0 25 -3 44 -7 44 -5 -1 -16 -3 -25 -6z"/>
<path d="M5680 2338 c-73 -17 -105 -19 -230 -13 -187 8 -225 7 -307 -10 -38
-8 -93 -15 -124 -15 l-55 0 7 -64 c5 -38 21 -92 40 -133 33 -68 33 -68 36
-258 2 -104 4 -249 3 -322 -1 -124 1 -136 30 -211 32 -85 80 -261 80 -299 0
-13 -12 -57 -26 -98 -25 -72 -25 -79 -14 -163 6 -48 22 -129 36 -181 29 -112
29 -138 4 -218 -24 -78 -29 -238 -9 -306 l14 -47 152 1 c145 0 153 1 153 20 0
11 18 42 40 70 42 54 43 55 44 108 1 29 8 38 50 65 26 17 76 56 110 88 67 62
233 171 247 162 25 -15 -19 -94 -53 -94 -7 0 -19 -4 -27 -9 -11 -7 -10 -13 3
-34 17 -25 16 -26 -19 -53 -41 -31 -34 -56 10 -36 28 13 67 15 103 6 l23 -7
-28 -18 c-15 -11 -45 -19 -65 -19 -26 0 -38 -5 -38 -14 0 -15 21 -26 52 -26
18 0 75 26 88 41 3 3 19 11 37 18 17 7 39 21 49 32 20 22 54 25 54 6 0 -39
-141 -127 -220 -137 -72 -10 -182 -80 -125 -80 8 0 15 -6 15 -14 0 -24 -139
-38 -176 -18 -12 7 -23 6 -35 -1 -13 -8 -29 -8 -58 -1 -47 13 -51 11 -51 -28
l0 -28 395 0 395 0 0 78 c0 44 -7 101 -15 128 -19 62 -19 98 0 133 20 40 29
189 17 303 -10 89 -14 101 -47 145 l-37 48 5 95 c3 52 12 119 21 149 15 51 15
62 -5 175 -11 67 -27 148 -35 181 -7 33 -14 88 -14 122 0 34 -11 108 -25 165
-30 126 -36 273 -15 373 8 39 14 101 15 140 l0 70 -50 27 c-48 27 -55 28 -195
27 -108 -1 -167 -6 -230 -21z m273 -220 c-10 -17 -37 -50 -60 -74 -23 -24 -49
-57 -58 -73 -8 -17 -28 -37 -45 -46 -34 -17 -33 -16 -59 -83 -21 -53 -16 -65
14 -36 40 41 98 84 112 84 8 0 17 -9 20 -20 7 -25 7 -25 43 2 16 12 32 19 36
16 18 -18 -66 -111 -181 -199 -38 -29 -74 -59 -80 -65 -5 -6 -35 -28 -65 -47
-30 -20 -81 -55 -114 -77 -32 -23 -78 -49 -102 -57 -30 -10 -58 -31 -92 -71
-27 -31 -61 -70 -75 -87 -15 -16 -27 -24 -27 -17 0 24 30 85 50 99 11 8 27 30
35 49 8 19 18 34 24 34 5 0 28 16 51 35 23 19 48 35 56 35 26 0 14 25 -36 74
-49 48 -51 48 -70 31 -16 -14 -23 -16 -32 -7 -14 14 -4 27 34 46 16 8 24 22
26 44 2 17 1 32 -2 32 -20 0 -55 -26 -60 -44 -3 -12 -22 -33 -43 -47 -26 -17
-42 -37 -51 -64 -7 -22 -19 -46 -27 -54 -15 -15 -35 -7 -35 15 0 20 69 113
114 152 21 18 42 47 48 65 13 38 55 86 118 132 25 18 62 48 81 67 20 18 58 45
85 58 26 14 55 31 62 38 20 18 28 6 11 -15 -9 -10 -21 -31 -27 -46 -7 -16 -21
-31 -32 -34 -11 -3 -28 -20 -39 -39 -13 -21 -28 -34 -41 -34 -46 0 -136 -68
-116 -88 3 -3 39 1 78 9 40 8 82 13 93 12 11 -1 31 3 45 8 28 10 113 103 103
112 -3 4 -25 4 -49 0 -36 -5 -44 -3 -44 10 0 9 12 18 31 22 18 4 35 16 41 31
7 14 18 23 27 22 16 -4 17 -16 5 -56 -6 -21 -5 -22 20 -11 14 7 26 15 26 19 0
4 28 34 61 66 34 33 73 71 87 86 32 35 48 26 25 -14z m-635 -115 c-28 -63 -54
-113 -60 -113 -17 0 -7 69 13 94 18 23 56 38 47 19z m100 -5 c-6 -18 -28 -21
-28 -4 0 9 7 16 16 16 9 0 14 -5 12 -12z m-252 -89 c-26 -39 -56 -52 -56 -24
0 8 17 34 38 56 29 33 38 38 40 25 2 -10 -8 -35 -22 -57z m755 28 c-29 -30
-39 -12 -10 19 14 15 25 20 27 14 3 -7 -5 -21 -17 -33z m-288 -27 c-7 -26 -29
-44 -48 -36 -22 8 -18 31 8 44 34 16 46 14 40 -8z m447 -121 c0 -10 -10 -27
-22 -37 -59 -47 -158 -149 -158 -163 0 -9 -19 -22 -49 -33 -60 -21 -79 -40
-61 -61 18 -22 102 12 110 45 4 15 21 33 43 46 49 27 96 82 97 112 0 17 5 23
18 20 25 -5 27 -44 3 -60 -12 -7 -21 -17 -21 -23 0 -5 -25 -37 -55 -69 -53
-57 -66 -91 -45 -112 6 -6 -8 -8 -37 -5 -49 3 -93 -14 -93 -37 0 -8 18 -36 40
-62 l39 -47 -27 -26 c-16 -15 -38 -27 -49 -27 -12 0 -24 -4 -28 -9 -7 -12 15
-61 27 -61 12 0 82 56 116 93 27 29 52 36 52 13 0 -21 -79 -105 -119 -125 -20
-11 -85 -66 -145 -123 -59 -56 -122 -112 -140 -123 -17 -11 -39 -29 -48 -41
-10 -12 -27 -24 -38 -27 -19 -5 -21 -2 -15 22 8 38 -14 55 -60 47 -28 -6 -35
-4 -35 9 0 10 10 15 33 15 26 0 37 6 47 25 17 32 10 39 -40 37 -28 -1 -40 2
-40 12 0 15 57 42 78 38 21 -5 42 18 42 47 l0 26 -24 -30 c-22 -27 -26 -29
-49 -16 -15 8 -36 11 -56 6 -45 -10 -41 18 6 42 37 18 65 64 49 80 -4 4 -29
-5 -57 -20 -87 -50 -58 -6 108 159 149 148 161 158 259 206 104 50 118 61 303
243 27 26 41 24 41 -6z m10 -215 c0 -13 -62 -94 -86 -113 -60 -47 -59 -14 1
50 25 26 45 53 45 59 0 5 9 10 20 10 11 0 20 -3 20 -6z m-790 -89 c0 -21 -50
-66 -69 -63 -29 6 -23 35 11 57 39 25 58 27 58 6z m-130 -39 c0 -3 -4 -8 -10
-11 -5 -3 -10 -1 -10 4 0 6 5 11 10 11 6 0 10 -2 10 -4z m740 -52 c0 -11 -5
-14 -16 -10 -9 3 -20 6 -25 6 -6 0 -7 5 -4 10 10 16 45 12 45 -6z m-752 -96
c-4 -27 -28 -36 -28 -10 0 20 8 32 22 32 5 0 8 -10 6 -22z m1002 -48 c0 -20
-25 -38 -36 -27 -8 7 15 47 26 47 6 0 10 -9 10 -20z m-950 -8 c0 -5 -7 -17
-15 -28 -15 -19 -20 -8 -9 20 6 17 24 22 24 8z m830 -31 c0 -13 -99 -129 -116
-135 -26 -10 -14 14 25 53 21 20 46 50 56 64 17 27 35 36 35 18z m150 -60 c0
-18 -45 -84 -74 -110 -16 -14 -51 -45 -76 -68 -34 -31 -56 -43 -77 -43 -30 0
-43 -14 -43 -47 0 -12 9 -14 43 -10 77 10 107 19 107 32 0 18 50 76 60 70 4
-3 0 -26 -10 -52 -13 -34 -24 -48 -36 -46 -10 1 -24 -7 -32 -18 -7 -10 -18
-19 -24 -19 -24 0 -139 -63 -148 -81 -10 -17 -7 -19 30 -19 24 0 61 11 90 25
27 14 53 25 56 25 15 0 -41 -51 -83 -76 -24 -13 -43 -29 -43 -34 0 -6 -10 -10
-23 -10 -25 0 -47 -17 -47 -37 0 -7 9 -12 21 -10 41 4 30 -22 -27 -65 -31 -24
-80 -63 -109 -88 -92 -79 -128 -106 -199 -148 -74 -45 -86 -49 -86 -28 0 19
-28 28 -51 16 -43 -23 1 36 55 74 11 7 16 18 12 24 -9 15 -62 16 -71 2 -3 -5
-13 -10 -21 -10 -29 0 -8 25 42 50 35 18 50 32 52 49 4 25 -3 25 -91 8 -7 -1
-13 9 -15 23 -2 22 1 25 30 27 33 1 92 11 116 19 22 6 -16 52 -46 56 -21 2
-26 8 -24 23 12 68 57 115 202 209 36 24 87 62 114 85 47 40 53 43 98 39 38
-4 49 -2 53 12 8 24 35 20 46 -7 12 -33 41 -30 37 4 -3 24 2 28 36 36 32 8 41
16 57 53 11 24 26 50 35 59 17 16 64 21 64 6z m-890 -25 c0 -2 -7 -9 -15 -16
-12 -10 -15 -10 -15 4 0 9 7 16 15 16 8 0 15 -2 15 -4z m-65 -281 c-41 -48
-75 -70 -75 -49 0 18 56 92 84 112 50 36 45 1 -9 -63z m165 20 c0 -14 -4 -25
-10 -25 -11 0 -14 33 -3 43 11 11 13 8 13 -18z m-40 -92 c0 -12 -33 -43 -47
-43 -20 0 -16 17 9 34 24 17 38 20 38 9z m765 -92 c-3 -6 -11 -11 -17 -11 -6
0 -6 6 2 15 14 17 26 13 15 -4z m-5 -116 c0 -20 -18 -28 -45 -21 -16 4 -22 11
-19 21 10 26 64 26 64 0z m-770 -87 c-2 -13 -110 -121 -110 -111 0 6 7 16 15
23 8 7 15 19 15 27 0 19 57 76 71 71 6 -2 10 -7 9 -10z m795 -94 c-57 -52
-112 -81 -127 -66 -17 17 1 50 30 57 15 4 34 13 42 20 14 12 71 33 95 34 6 0
-12 -20 -40 -45z m-785 -133 c0 -22 -8 -29 -50 -41 -37 -11 -41 9 -8 40 28 26
58 26 58 1z"/>
<path d="M5850 1814 c0 -8 5 -12 10 -9 6 3 10 10 10 16 0 5 -4 9 -10 9 -5 0
-10 -7 -10 -16z"/>
<path d="M5720 1366 c0 -8 7 -16 15 -20 17 -6 18 -4 9 18 -8 20 -24 21 -24 2z"/>
<path d="M5689 515 c-30 -16 -46 -45 -25 -45 16 0 66 38 66 51 0 12 -10 11
-41 -6z"/>
<path d="M5600 123 c0 -26 25 -49 35 -32 4 6 -2 21 -14 32 l-21 21 0 -21z"/>
</g>
 <!-- amarelo -->
 <g transform="translate(0.000000,829.000000) scale(0.100000,-0.100000)"
fill="#F4D03F" stroke="none">
<path d="M7370 6491 c-19 -5 -64 -23 -100 -41 -37 -19 -80 -33 -100 -33 -19 0
-84 1 -145 3 -124 4 -172 -9 -320 -83 -62 -31 -101 -43 -177 -53 -98 -14 -161
-35 -338 -114 -67 -30 -121 -47 -182 -55 -138 -20 -396 -99 -458 -141 -19 -13
-63 -52 -98 -86 l-63 -63 -102 -7 c-56 -4 -132 -13 -170 -20 -60 -12 -75 -20
-144 -78 -43 -36 -108 -95 -145 -132 -53 -52 -80 -71 -120 -83 -28 -8 -56 -15
-60 -15 -5 0 -60 -25 -122 -56 l-114 -55 10 -41 c17 -77 30 -91 123 -140 129
-66 231 -198 239 -307 2 -25 12 -62 22 -82 11 -20 39 -77 63 -125 41 -85 84
-144 104 -144 5 0 25 -13 44 -30 18 -16 40 -30 48 -30 8 0 31 19 52 42 21 23
46 49 55 59 9 10 48 27 86 39 48 14 96 39 152 79 80 57 83 58 181 70 55 7 114
17 132 23 56 19 186 120 240 185 54 68 59 70 152 76 109 7 226 35 254 60 47
43 91 69 165 97 69 27 78 28 162 20 116 -11 224 8 335 56 82 36 89 37 244 44
149 7 165 10 240 40 106 43 143 47 213 22 42 -15 101 -24 224 -31 175 -11 192
-9 270 34 17 10 55 15 112 15 l86 0 0 535 c0 328 -4 535 -9 535 -6 0 -13 -5
-17 -11 -5 -9 -37 -9 -113 -4 -130 10 -295 10 -378 0 -48 -6 -72 -3 -110 10
-37 14 -87 18 -218 21 -93 1 -186 -1 -205 -5z"/>
<path d="M3494 4562 c-53 -46 -135 -183 -174 -289 -25 -70 -44 -93 -113 -140
-92 -64 -220 -281 -252 -430 -31 -141 -46 -184 -80 -222 -50 -55 -121 -165
-161 -250 -91 -191 -107 -220 -159 -286 -30 -38 -64 -89 -75 -113 -31 -63 -53
-178 -47 -248 4 -60 8 -67 81 -173 24 -35 30 -56 38 -139 17 -179 26 -192 168
-242 65 -22 94 -40 150 -89 43 -38 71 -72 75 -89 3 -15 14 -42 24 -59 22 -34
65 -48 186 -58 l70 -5 49 67 c27 36 64 101 82 144 28 64 34 89 34 149 0 61 9
96 60 247 70 204 138 341 215 433 134 159 214 320 219 438 3 70 6 74 106 144
101 71 159 134 225 247 18 31 47 68 64 84 17 15 31 31 31 36 0 5 -23 58 -52
118 -48 100 -60 116 -160 215 -59 59 -108 113 -108 120 0 7 -20 46 -44 86 -45
75 -180 208 -241 238 -17 8 -46 28 -64 44 -64 59 -99 64 -147 22z"/>
<path d="M1951 1158 c-14 -67 -16 -116 -6 -185 6 -49 -15 -151 -61 -288 -39
-117 -5 -330 66 -420 19 -24 28 -45 24 -54 -20 -47 -54 -165 -54 -186 l0 -25
524 0 524 0 4 73 c5 82 -6 222 -23 283 -8 32 -7 53 5 101 21 80 22 78 -21 104
-21 12 -88 62 -149 111 -62 48 -117 88 -122 88 -41 0 -183 58 -246 101 -40 27
-93 55 -119 63 -105 32 -265 155 -308 240 l-27 51 -11 -57z"/>
<path d="M8345 10 c-4 -6 10 -10 34 -10 23 0 41 5 41 10 0 6 -15 10 -34 10
-19 0 -38 -4 -41 -10z"/>
</g>
 <g transform="translate(0.000000,829.000000) scale(0.100000,-0.100000)"
fill="#000000" stroke="none">
<path d="M7433 6489 c-50 -6 -96 -20 -150 -46 -75 -36 -81 -38 -158 -33 -132
8 -218 3 -259 -14 -21 -9 -47 -16 -57 -16 -11 0 -59 -20 -107 -44 -71 -36
-104 -46 -177 -55 -97 -12 -135 -24 -320 -105 -87 -38 -142 -56 -200 -64 -116
-16 -334 -86 -448 -144 -21 -10 -67 -48 -102 -85 l-64 -65 -113 -9 c-211 -17
-201 -14 -325 -117 -61 -51 -123 -108 -138 -127 -31 -42 -62 -59 -132 -74 -60
-12 -252 -106 -259 -126 -8 -21 15 -86 40 -114 11 -12 50 -38 86 -56 90 -46
191 -151 219 -228 12 -32 19 -68 15 -81 -4 -16 9 -50 42 -112 26 -49 60 -114
75 -144 24 -49 69 -105 69 -85 0 4 18 -9 40 -29 22 -20 46 -36 53 -36 6 0 37
27 67 60 47 52 65 64 130 86 68 25 132 61 201 115 19 15 54 24 130 33 57 8
122 21 144 30 60 26 175 117 225 179 53 65 74 77 139 77 27 0 93 9 147 20 81
17 108 28 163 65 36 24 96 56 132 69 59 22 75 24 155 18 120 -10 227 8 334 55
82 36 90 37 240 43 85 4 164 10 175 14 11 5 55 24 98 44 85 39 82 39 237 3 25
-5 106 -15 180 -21 142 -12 159 -10 262 31 31 13 72 19 122 19 l76 0 0 40 c0
38 -2 40 -31 40 -17 0 -43 8 -57 19 -15 10 -44 26 -65 36 -21 10 -55 35 -75
55 -23 23 -54 42 -80 50 -41 10 -43 13 -40 43 3 31 2 32 -39 35 -31 2 -52 13
-85 40 -24 21 -60 50 -82 66 -60 45 -323 309 -330 333 -4 12 -32 33 -69 52
-34 17 -78 42 -97 56 -19 13 -45 31 -57 40 -13 9 -23 25 -23 36 0 23 27 36 43
20 6 -6 28 -11 49 -11 33 0 38 3 38 24 0 13 7 29 15 36 12 10 22 8 55 -14 22
-14 40 -22 40 -16 0 6 11 15 24 22 19 8 34 7 65 -5 25 -10 52 -14 72 -10 32 6
34 5 234 -197 38 -38 68 -50 79 -31 3 5 -3 20 -14 34 -11 14 -20 32 -20 41 0
30 38 -1 227 -183 100 -96 191 -179 203 -183 19 -7 20 -4 20 52 0 56 -1 60
-24 60 -25 0 -33 7 -149 128 -43 45 -83 82 -89 82 -6 0 -8 10 -5 21 6 22 -50
100 -101 142 -32 27 -18 40 37 32 25 -3 58 -2 73 4 20 8 39 6 80 -8 29 -10 81
-22 116 -25 l62 -7 0 43 0 43 -113 4 c-196 6 -340 5 -402 -3 -48 -7 -73 -4
-125 12 -78 23 -245 34 -347 21z m-332 -194 c50 -36 73 -43 84 -25 3 6 15 10
26 10 25 0 131 -53 149 -75 8 -9 34 -27 60 -40 27 -14 90 -69 156 -137 61 -62
154 -153 207 -203 71 -66 97 -96 97 -114 0 -14 10 -35 22 -48 20 -22 21 -24 4
-42 -18 -20 -14 -41 8 -41 7 0 22 -9 33 -19 30 -28 58 -31 57 -6 0 11 -4 30
-8 43 -5 15 -3 22 6 22 17 -1 150 -92 155 -106 2 -7 -20 -28 -48 -49 -48 -34
-56 -37 -101 -32 -27 4 -59 1 -73 -5 -33 -15 -74 -2 -85 27 -14 36 -43 47
-106 39 -49 -6 -57 -4 -92 22 -101 77 -132 105 -132 119 0 8 -24 20 -55 29
-50 15 -72 34 -275 229 -122 116 -231 217 -243 223 -12 6 -39 14 -60 18 -21 4
-53 16 -70 26 -18 11 -49 29 -70 40 -61 34 -32 57 45 37 27 -7 27 -7 16 19
-10 22 -10 28 5 39 10 7 26 11 37 8 10 -3 29 2 42 11 15 11 44 16 92 16 63 0
73 -3 117 -35z m-545 -121 c31 -18 52 -24 69 -20 33 8 75 -3 75 -20 0 -8 -8
-14 -18 -14 -10 0 -26 -6 -36 -13 -16 -12 -14 -14 19 -30 19 -9 40 -28 45 -42
5 -14 17 -25 28 -25 29 0 34 12 12 27 -11 8 -20 23 -20 35 0 18 4 19 33 14 17
-3 48 -9 67 -12 57 -8 136 -65 256 -183 100 -100 114 -117 114 -147 0 -24 7
-38 26 -51 15 -10 54 -45 88 -78 57 -55 93 -82 169 -129 37 -23 30 -41 -16
-42 -21 -1 -45 -8 -55 -18 -23 -20 -33 -20 -76 1 -34 16 -37 16 -56 -2 -19
-17 -22 -18 -55 -2 -19 9 -42 28 -51 42 -10 16 -26 25 -41 25 -29 0 -83 35
-83 54 0 18 -19 33 -53 41 -38 10 -37 -20 3 -40 17 -9 30 -22 30 -30 0 -19
-40 -19 -66 0 -10 8 -24 15 -30 15 -18 0 -145 78 -179 110 -16 15 -46 37 -65
50 -19 13 -65 51 -101 84 -44 41 -97 77 -162 109 -98 48 -117 66 -117 111 0
14 -4 26 -9 26 -5 0 -26 16 -47 35 -27 26 -34 39 -26 47 8 8 18 5 38 -11 15
-11 33 -21 40 -21 23 0 16 27 -13 49 -24 17 -26 22 -13 31 8 6 29 9 45 7 17
-3 42 2 57 9 19 10 34 11 52 4 21 -8 27 -6 36 10 14 27 33 25 86 -6z m-356
-148 c0 -20 -19 -31 -32 -18 -6 6 -7 15 -4 21 10 16 36 13 36 -3z m-293 -51
c21 -9 44 -22 53 -30 8 -7 27 -16 41 -20 21 -5 30 -2 42 15 17 25 24 24 122
-9 51 -18 154 -63 270 -118 17 -7 76 -55 132 -106 55 -51 116 -101 134 -112
19 -11 35 -29 37 -39 2 -10 18 -31 35 -47 24 -22 39 -28 59 -24 22 3 32 -1 44
-20 9 -13 24 -27 35 -30 10 -4 19 -13 19 -21 0 -14 11 -18 38 -15 19 3 14 -34
-7 -53 -14 -13 -28 -16 -48 -12 -22 5 -34 2 -47 -13 -16 -17 -21 -18 -48 -6
-39 16 -71 9 -63 -15 10 -30 -15 -39 -70 -25 -35 8 -57 9 -72 2 -17 -7 -29 -5
-55 11 -18 12 -51 29 -73 40 -22 10 -58 31 -79 45 -27 19 -52 27 -81 27 -37 0
-60 11 -164 81 -67 45 -139 91 -161 103 -91 50 -158 87 -195 111 -49 31 -183
96 -247 120 -78 29 -76 65 3 65 36 0 49 4 49 15 0 8 15 18 34 23 19 6 43 19
55 31 11 11 33 21 49 22 15 0 36 4 47 9 31 13 72 11 112 -5z m-550 -240 c19
-8 63 -15 97 -15 122 -1 274 -54 386 -135 25 -18 74 -47 109 -65 76 -38 188
-139 169 -152 -7 -4 -25 -8 -40 -8 -36 0 -35 -7 4 -47 42 -43 58 -42 58 2 0
43 17 45 62 7 35 -29 99 -62 122 -62 8 0 24 -8 36 -18 26 -21 21 -27 -60 -61
-30 -13 -69 -30 -87 -38 -18 -9 -44 -13 -60 -10 -165 35 -242 47 -265 43 -30
-6 -197 66 -253 108 -28 22 -165 90 -300 150 -33 15 -73 33 -88 41 -16 8 -38
15 -49 15 -12 0 -41 12 -66 26 -44 26 -44 26 -101 10 -72 -20 -120 -21 -127
-1 -20 52 117 155 206 155 25 0 42 6 48 15 8 15 108 52 145 54 10 1 34 -6 54
-14z m-277 -302 c41 -8 111 -26 156 -39 44 -13 83 -24 87 -24 12 0 222 -102
237 -115 17 -15 214 -115 273 -139 35 -14 37 -17 37 -60 0 -51 -9 -59 -76 -70
-33 -6 -43 -13 -55 -39 -13 -29 -20 -33 -79 -43 -36 -5 -75 -16 -87 -22 -12
-7 -49 -12 -82 -12 -66 0 -112 15 -256 84 -96 46 -159 66 -267 86 -77 14 -104
29 -95 54 6 15 16 16 64 11 32 -4 86 -13 121 -21 35 -8 93 -14 129 -14 l67 0
-29 30 c-26 27 -35 30 -87 30 -39 0 -78 8 -116 23 -31 13 -85 34 -119 47 -35
12 -61 26 -58 30 16 25 198 13 239 -16 26 -18 50 -18 66 1 19 23 -3 42 -53 48
-49 6 -136 35 -157 53 -24 20 -107 48 -223 76 -28 7 -37 14 -35 26 3 14 14 17
73 14 45 -2 85 2 110 12 44 16 96 14 215 -11z m-308 -180 c54 -27 52 -43 -4
-24 -17 6 -44 11 -59 11 -29 0 -44 13 -34 30 10 17 41 11 97 -17z m325 -369
c38 -29 42 -44 11 -44 -25 0 -108 46 -108 60 0 20 64 10 97 -16z m146 -15 c60
-16 48 -37 -20 -34 -77 3 -75 2 -61 25 14 23 27 24 81 9z m434 -5 c-3 -3 -12
-4 -19 -1 -8 3 -5 6 6 6 11 1 17 -2 13 -5z m-346 -81 c45 -27 34 -47 -28 -51
-42 -2 -53 -7 -58 -23 -6 -19 -12 -20 -53 -14 -60 10 -60 10 -106 1 -61 -12
-40 16 31 39 33 11 67 25 74 31 17 14 68 32 92 33 11 1 32 -7 48 -16z"/>
<path d="M6880 6276 c0 -27 71 -83 90 -71 18 11 -17 62 -51 74 -40 14 -39 14
-39 -3z"/>
<path d="M6970 6277 c0 -7 21 -24 48 -37 26 -14 59 -36 74 -49 34 -30 47 -21
23 16 -22 33 -32 43 -65 66 -29 20 -80 23 -80 4z"/>
<path d="M7232 6198 c7 -19 34 -32 54 -24 18 7 17 9 -6 21 -31 18 -53 19 -48
3z"/>
<path d="M7810 5745 c-15 -18 -6 -45 14 -45 20 0 26 12 19 38 -6 26 -16 28
-33 7z"/>
<path d="M7498 5743 c-24 -6 -23 -30 1 -43 15 -7 23 -6 35 6 20 20 20 30 0 38
-9 3 -16 5 -17 5 -1 -1 -10 -3 -19 -6z"/>
<path d="M7630 5733 c0 -21 124 -122 136 -111 2 2 1 28 -3 57 -6 57 -23 72
-55 52 -13 -8 -24 -8 -38 -1 -22 12 -40 13 -40 3z"/>
<path d="M7685 5560 c3 -5 10 -10 16 -10 5 0 9 5 9 10 0 6 -7 10 -16 10 -8 0
-12 -4 -9 -10z"/>
<path d="M7810 5560 c0 -5 5 -10 11 -10 5 0 7 5 4 10 -3 6 -8 10 -11 10 -2 0
-4 -4 -4 -10z"/>
<path d="M7920 5490 c-12 -8 -12 -10 3 -16 21 -8 35 2 21 16 -5 5 -15 6 -24 0z"/>
<path d="M6465 6129 c-5 -16 -12 -19 -28 -14 -49 15 -63 15 -82 2 -19 -14 -18
-16 19 -31 56 -23 96 -21 96 5 0 16 4 19 18 14 9 -4 30 -9 47 -11 l30 -4 -25
17 c-14 9 -31 23 -38 30 -19 18 -30 16 -37 -8z"/>
<path d="M6805 6030 c-3 -6 1 -13 10 -16 19 -8 30 0 20 15 -8 14 -22 14 -30 1z"/>
<path d="M6330 6011 c0 -15 51 -51 72 -51 15 0 18 5 12 23 -4 12 -12 25 -18
29 -16 11 -66 10 -66 -1z"/>
<path d="M6770 5700 c0 -18 26 -40 48 -40 13 0 2 42 -12 52 -20 14 -36 8 -36
-12z"/>
<path d="M7114 5675 c-8 -20 13 -45 32 -38 8 3 14 16 14 29 0 17 -6 24 -20 24
-11 0 -23 -7 -26 -15z"/>
<path d="M7012 5663 c-9 -3 6 -17 37 -34 28 -16 53 -29 56 -29 3 0 5 11 5 25
0 36 -52 57 -98 38z"/>
<path d="M7200 5570 c11 -21 35 -27 44 -11 3 4 -6 13 -20 20 -34 15 -36 14
-24 -9z"/>
<path d="M7296 5525 c4 -8 12 -15 20 -15 19 0 18 16 -2 24 -22 9 -24 8 -18 -9z"/>
<path d="M5825 5930 c3 -5 15 -10 26 -10 10 0 19 5 19 10 0 6 -12 10 -26 10
-14 0 -23 -4 -19 -10z"/>
<path d="M5640 5862 c0 -5 12 -17 26 -27 25 -16 26 -16 22 7 -2 15 -11 24 -25
26 -13 2 -23 -1 -23 -6z"/>
<path d="M6300 5670 c0 -5 5 -10 11 -10 5 0 7 5 4 10 -3 6 -8 10 -11 10 -2 0
-4 -4 -4 -10z"/>
<path d="M6516 5554 c-24 -24 -19 -50 17 -86 18 -18 41 -45 50 -60 12 -20 26
-28 45 -28 17 0 38 -10 52 -25 30 -32 66 -35 50 -5 -6 11 -17 20 -24 20 -8 0
-25 15 -38 33 -40 53 -41 56 -13 51 43 -8 28 18 -40 69 -71 52 -77 54 -99 31z"/>
<path d="M6307 5464 c6 -15 23 -19 23 -5 0 5 -7 11 -14 14 -10 4 -13 1 -9 -9z"/>
<path d="M6486 5413 c-13 -13 -4 -25 30 -39 43 -18 67 -5 32 18 -31 20 -55 28
-62 21z"/>
<path d="M6740 5410 c0 -15 38 -32 45 -20 3 5 3 15 0 20 -8 13 -45 13 -45 0z"/>
<path d="M5328 5697 c-21 -6 -38 -14 -38 -19 0 -9 61 -11 84 -2 14 5 12 36 -3
33 -3 -1 -23 -6 -43 -12z"/>
<path d="M5230 5665 c-7 -8 -8 -15 -2 -15 5 0 15 7 22 15 7 8 8 15 2 15 -5 0
-15 -7 -22 -15z"/>
<path d="M5310 5596 c0 -18 63 -40 91 -31 17 6 19 9 8 16 -8 5 -24 9 -36 9
-13 0 -23 5 -23 10 0 6 -9 10 -20 10 -11 0 -20 -6 -20 -14z"/>
<path d="M5196 5562 c-8 -13 30 -56 43 -48 15 10 14 22 -5 40 -17 17 -30 20
-38 8z"/>
<path d="M5857 5373 c-12 -11 -7 -43 6 -43 23 0 38 22 26 37 -13 14 -22 16
-32 6z"/>
<path d="M5730 5308 c0 -9 7 -19 16 -22 25 -10 27 -1 4 19 -17 15 -20 16 -20
3z"/>
<path d="M5846 5254 c-11 -28 -7 -32 37 -38 50 -8 87 1 65 15 -7 5 -23 9 -34
9 -12 0 -27 7 -34 15 -16 19 -26 19 -34 -1z"/>
<path d="M6065 5220 c28 -12 47 -12 40 0 -3 6 -18 10 -33 9 -24 0 -25 -1 -7
-9z"/>
<path d="M5680 5111 c0 -11 90 -61 109 -61 6 0 8 7 5 15 -4 8 -11 15 -17 15
-6 0 -18 6 -26 14 -22 19 -71 31 -71 17z"/>
<path d="M5426 5087 c-8 -32 -8 -32 16 -32 29 0 35 30 10 44 -17 9 -21 7 -26
-12z"/>
<path d="M5582 5078 c6 -17 36 -34 44 -25 4 4 -1 14 -12 22 -23 18 -37 19 -32
3z"/>
<path d="M5332 5058 c6 -16 52 -28 68 -18 9 6 7 11 -8 19 -28 15 -65 14 -60
-1z"/>
<path d="M5630 4995 l-23 -25 30 0 c44 0 63 9 63 31 0 28 -42 24 -70 -6z"/>
<path d="M5300 4990 c-12 -7 -12 -12 -2 -22 9 -9 15 -9 24 0 16 16 -2 34 -22
22z"/>
<path d="M5541 4971 c-14 -25 -1 -33 28 -18 30 15 32 31 4 35 -14 2 -26 -4
-32 -17z"/>
<path d="M7540 6366 c0 -17 35 -30 51 -20 9 5 6 11 -6 21 -24 17 -45 17 -45
-1z"/>
<path d="M8150 6355 c0 -8 9 -15 19 -15 11 0 28 -3 38 -6 14 -4 13 -1 -6 15
-27 25 -51 27 -51 6z"/>
<path d="M7423 6345 c0 -8 4 -15 9 -15 4 0 8 7 8 15 0 8 -4 15 -8 15 -5 0 -9
-7 -9 -15z"/>
<path d="M8260 6255 c0 -29 12 -32 34 -9 19 19 12 34 -15 34 -14 0 -19 -7 -19
-25z"/>
<path d="M8324 6266 c-8 -22 14 -56 37 -56 11 0 30 5 41 11 20 11 20 12 -8 35
-33 27 -62 31 -70 10z"/>
<path d="M7560 6238 c0 -7 12 -24 25 -37 28 -26 33 -13 9 24 -17 27 -34 33
-34 13z"/>
<path d="M7938 6103 c6 -2 18 -2 25 0 6 3 1 5 -13 5 -14 0 -19 -2 -12 -5z"/>
<path d="M8204 5695 c-9 -24 3 -44 31 -51 36 -9 40 -1 19 35 -20 33 -41 40
-50 16z"/>
<path d="M3508 4564 c-21 -15 -55 -54 -77 -88 -40 -60 -111 -205 -111 -225 0
-26 -47 -84 -85 -107 -24 -14 -66 -53 -94 -86 -67 -82 -157 -257 -176 -344
-34 -153 -48 -194 -80 -231 -59 -71 -151 -218 -205 -328 -62 -128 -101 -191
-158 -258 -56 -64 -85 -160 -86 -282 -1 -81 2 -94 26 -132 15 -23 32 -44 38
-48 25 -16 48 -85 55 -166 14 -183 25 -196 205 -251 19 -5 67 -38 105 -73 54
-48 74 -74 88 -113 23 -63 31 -70 98 -81 114 -20 179 -24 179 -10 0 7 21 39
46 71 25 32 61 94 80 138 30 69 35 89 33 153 -1 40 3 82 9 93 5 10 31 82 57
159 72 213 145 349 245 460 101 112 170 262 179 390 l6 79 96 76 c98 76 202
188 234 250 10 19 36 52 58 73 l41 38 -47 93 c-26 51 -47 98 -47 105 0 7 -52
64 -115 126 -63 62 -115 118 -115 124 0 6 -19 44 -42 83 -45 74 -186 216 -243
244 -17 8 -45 27 -62 42 -37 33 -68 52 -85 52 -7 0 -30 -12 -50 -26z m-8 -148
c0 -37 26 -51 98 -51 111 0 86 -30 -44 -54 -28 -6 -74 -26 -105 -45 -29 -20
-58 -35 -64 -33 -21 7 -15 36 13 69 16 18 32 48 36 67 11 60 66 99 66 47z
m177 -174 c7 -4 11 -21 10 -37 l-2 -30 73 3 c76 2 112 -8 112 -33 0 -8 -3 -15
-7 -15 -5 0 -88 -1 -185 -2 -161 -2 -178 -4 -178 -20 0 -9 6 -20 12 -24 7 -5
72 -7 146 -5 139 3 176 -6 151 -36 -9 -10 -24 -12 -53 -8 -23 3 -54 1 -71 -4
l-30 -9 36 -15 c27 -12 57 -14 130 -10 75 4 98 2 114 -10 11 -9 17 -18 14 -21
-3 -3 -53 -7 -110 -9 -57 -2 -110 -7 -118 -11 -25 -16 20 -30 105 -32 91 -2
135 -17 113 -40 -11 -11 -32 -11 -112 -3 -74 7 -102 7 -113 -2 -11 -9 -11 -15
-3 -25 12 -15 132 -18 177 -5 42 11 136 -2 140 -20 2 -13 -13 -17 -95 -23 -54
-4 -132 -11 -173 -16 -41 -4 -124 -13 -185 -20 -184 -19 -367 -54 -414 -79
-19 -11 -31 -11 -62 -1 -46 15 -59 8 -35 -19 16 -18 16 -20 -6 -35 -37 -26
-51 -21 -44 15 3 17 6 44 6 60 0 20 8 34 26 45 24 16 28 16 70 -4 53 -26 64
-27 64 -7 0 19 -37 42 -78 48 -42 7 -49 13 -36 35 19 30 61 27 100 -8 64 -56
118 -65 151 -26 12 13 35 27 52 31 37 8 47 21 30 41 -9 12 -33 15 -98 14 -142
-1 -186 4 -186 20 0 16 94 27 248 29 69 1 78 3 75 19 -4 19 -20 20 -188 12
l-95 -5 0 25 c0 23 4 25 60 30 73 7 167 47 142 61 -11 6 -29 4 -53 -6 -50 -21
-86 -20 -82 2 5 27 66 62 119 69 27 4 52 11 55 15 3 5 14 9 24 9 11 0 37 19
59 42 31 31 51 43 83 49 61 9 101 10 115 1z m127 -560 c14 -14 42 -17 135 -19
108 -2 188 -8 219 -18 24 -8 -13 -57 -69 -90 -45 -26 -53 -36 -54 -60 0 -27
-4 -31 -45 -41 -34 -8 -46 -16 -50 -34 -3 -13 -12 -27 -20 -31 -44 -24 -93
-40 -159 -54 -41 -9 -75 -17 -76 -18 -25 -51 -31 -54 -132 -61 -54 -3 -123
-10 -153 -15 -156 -26 -194 -30 -305 -33 -84 -2 -132 -7 -160 -19 -22 -9 -59
-20 -82 -24 -24 -4 -45 -11 -49 -16 -7 -12 -41 -12 -49 0 -3 6 5 20 19 33 13
13 26 36 30 51 4 15 20 42 36 59 17 17 30 39 30 49 0 25 100 92 123 83 26 -10
94 5 76 17 -8 5 -27 9 -44 9 -16 0 -37 5 -45 10 -13 8 -13 11 2 27 12 11 39
18 83 21 61 4 63 5 45 21 -27 22 -17 34 65 74 96 47 124 55 243 67 57 5 109
13 115 17 15 10 193 22 227 16 14 -3 33 -12 44 -21z m20 -494 c-3 -5 -16 -13
-29 -18 -22 -8 -23 -12 -12 -39 10 -28 9 -33 -21 -63 -18 -17 -36 -44 -39 -60
-7 -36 -21 -47 -74 -57 -31 -5 -43 -12 -40 -22 2 -8 6 -22 8 -31 7 -23 -22
-24 -64 -3 -31 15 -93 11 -93 -6 0 -5 5 -9 11 -9 6 0 24 -9 40 -21 25 -17 27
-23 16 -40 -15 -25 -42 -24 -68 2 -15 15 -28 19 -46 14 -19 -4 -36 1 -64 21
-35 24 -42 25 -69 14 -16 -7 -30 -16 -30 -21 0 -5 -6 -9 -14 -9 -22 0 -41 -29
-28 -42 49 -49 -58 -120 -204 -137 -43 -5 -98 -16 -122 -25 -41 -15 -72 -13
-72 5 0 5 -16 9 -35 9 -28 0 -35 -4 -35 -19 0 -30 -26 -44 -71 -38 -31 4 -39
2 -35 -8 8 -21 -18 -36 -53 -29 -30 6 -31 5 -31 -25 0 -28 -3 -32 -22 -29 -17
2 -22 9 -20 23 2 11 4 40 5 65 2 40 5 45 27 48 14 2 39 10 57 18 17 8 36 14
43 14 6 0 22 8 35 18 l22 18 -41 2 c-30 1 -51 -6 -78 -24 -41 -29 -58 -25 -58
11 0 28 34 55 68 55 12 0 36 10 52 21 24 18 37 21 78 15 40 -5 52 -3 66 12 14
16 14 21 3 31 -17 13 -137 -8 -162 -29 -8 -7 -22 -10 -30 -6 -26 9 -17 40 21
70 32 25 38 27 60 16 19 -10 29 -11 50 -2 35 17 25 37 -20 38 -20 1 -39 4 -43
7 -10 11 17 35 48 42 18 4 35 17 44 36 18 34 23 35 77 9 53 -25 74 -25 88 0
13 24 -5 35 -47 27 -15 -3 -33 -3 -40 0 -21 8 -15 32 10 37 12 2 70 14 128 25
58 12 126 21 151 21 25 0 76 9 113 21 51 16 92 20 169 20 114 -2 204 9 321 36
77 19 114 15 99 -9z m-491 -379 c21 -15 31 -18 46 -10 13 8 29 7 52 -1 l32
-11 -21 -18 c-12 -9 -56 -25 -98 -35 -64 -15 -77 -16 -84 -4 -5 8 -4 22 1 32
6 12 6 25 -1 37 -15 28 -13 31 19 31 15 0 40 -9 54 -21z m251 -68 c11 -17 -6
-40 -34 -46 -26 -6 -28 -9 -18 -30 8 -18 8 -28 -2 -40 -17 -21 -25 -19 -38 10
-7 14 -20 25 -31 25 -20 0 -37 -16 -23 -22 16 -7 51 -61 46 -70 -4 -5 -10 -5
-17 0 -7 5 -48 17 -92 26 -99 21 -137 35 -132 50 5 16 75 19 124 5 48 -13 63
-8 43 16 -10 12 -1 20 61 49 77 36 104 42 113 27z m-359 -122 c7 -15 36 -29
100 -50 50 -16 102 -29 118 -29 30 0 34 -15 12 -44 -8 -11 -15 -30 -15 -42 0
-29 -8 -34 -69 -41 -48 -5 -50 -7 -44 -33 4 -20 -1 -33 -19 -50 -30 -29 -130
-76 -193 -91 -127 -29 -296 -79 -358 -106 -27 -12 -41 -13 -48 -6 -21 21 26
51 105 68 42 9 79 21 82 27 3 5 -2 18 -12 29 -16 17 -16 22 -4 29 8 6 29 10
47 10 38 0 53 18 30 35 -22 16 -159 9 -210 -11 -48 -18 -67 -18 -67 2 0 8 17
21 38 30 20 8 50 21 65 29 16 8 51 15 79 15 56 0 63 19 10 32 -17 5 -33 17
-37 28 -8 26 -45 27 -45 0 0 -41 -83 -54 -104 -15 -15 27 -27 35 -55 35 -24 0
-24 0 -5 15 10 8 29 15 42 15 18 0 22 -4 17 -19 -7 -22 20 -32 54 -20 19 8 22
14 16 39 -6 26 -3 30 20 36 17 4 40 1 62 -10 l35 -17 -6 24 c-9 36 9 44 104
50 60 4 102 13 145 31 73 31 97 32 110 5z m-632 -179 c3 -11 17 -24 33 -30 18
-7 24 -14 17 -21 -22 -22 -91 26 -79 56 8 21 23 19 29 -5z m735 -233 c6 -6 9
-43 8 -82 -2 -67 -4 -70 -34 -88 -27 -16 -30 -21 -20 -37 17 -27 4 -35 -39
-22 -82 24 -199 32 -255 17 -56 -14 -68 -12 -68 10 0 9 27 22 70 35 42 12 82
32 102 50 18 17 41 30 51 30 10 0 31 8 45 19 15 10 44 26 65 34 20 9 40 23 43
32 7 18 18 19 32 2z m-88 -321 c0 -15 -50 -56 -68 -56 -18 0 -24 -20 -12 -35
10 -12 10 -18 0 -29 -18 -23 -40 -8 -34 23 5 22 1 29 -20 39 -47 21 -32 38 49
58 68 17 85 17 85 0z"/>
<path d="M3406 4061 c-7 -11 22 -23 35 -15 5 3 7 10 4 15 -8 12 -32 12 -39 0z"/>
<path d="M3528 4018 c5 -5 16 -8 23 -6 8 3 3 7 -10 11 -17 4 -21 3 -13 -5z"/>
<path d="M3740 3632 c0 -5 15 -17 33 -27 26 -13 43 -16 73 -10 l39 8 -50 17
c-55 20 -95 25 -95 12z"/>
<path d="M4000 3610 c-13 -8 -12 -10 3 -10 9 0 20 0 24 -1 4 0 9 4 11 10 5 14
-18 14 -38 1z"/>
<path d="M3231 3577 c-50 -17 -52 -37 -4 -37 52 0 83 10 83 25 0 12 -22 26
-38 24 -4 0 -22 -5 -41 -12z"/>
<path d="M3580 3445 c0 -41 151 -91 199 -65 24 13 28 30 6 30 -9 0 -48 11 -87
25 -82 29 -118 32 -118 10z"/>
<path d="M3822 3438 c-7 -7 -12 -18 -12 -26 0 -19 48 -7 75 19 19 19 19 19
-16 19 -19 0 -40 -5 -47 -12z"/>
<path d="M3006 3360 c-51 -9 -116 -38 -116 -52 0 -16 52 -8 77 12 18 14 39 19
79 18 49 -1 74 5 63 16 -10 11 -58 13 -103 6z"/>
<path d="M3530 3351 c0 -21 23 -32 70 -33 38 -1 44 5 30 31 -8 17 -20 21 -55
21 -38 0 -45 -3 -45 -19z"/>
<path d="M3020 3280 c-8 -5 -11 -12 -7 -16 4 -4 13 -2 19 4 15 15 7 24 -12 12z"/>
<path d="M2898 3223 c7 -3 16 -2 19 1 4 3 -2 6 -13 5 -11 0 -14 -3 -6 -6z"/>
<path d="M3551 3111 c-23 -15 1 -19 89 -16 99 3 99 3 82 13 -17 12 -154 14
-171 3z"/>
<path d="M3550 3018 c-41 -15 -73 -19 -135 -16 -65 2 -83 0 -97 -14 -10 -10
-14 -19 -10 -22 18 -11 212 -4 239 8 15 8 58 20 96 27 67 13 81 22 51 33 -29
11 -88 5 -144 -16z"/>
<path d="M2731 2741 c-7 -5 -10 -14 -7 -20 10 -16 73 -14 79 3 9 23 -43 35
-72 17z"/>
<path d="M3215 2530 c-12 -19 16 -38 60 -41 22 -2 50 -9 63 -15 23 -12 62 -8
62 5 0 12 -98 53 -139 58 -24 3 -41 1 -46 -7z"/>
<path d="M3050 2425 c-20 -24 -4 -45 32 -45 53 0 64 14 32 39 -32 25 -47 26
-64 6z"/>
<path d="M3206 2355 c-5 -13 0 -16 19 -13 32 4 38 22 9 26 -13 2 -24 -4 -28
-13z"/>
<path d="M3033 2311 c-26 -25 1 -34 59 -20 84 20 92 36 17 35 -39 -1 -68 -6
-76 -15z"/>
<path d="M3254 2120 c-49 -20 -31 -49 22 -36 16 4 24 12 22 23 -4 20 -17 24
-44 13z"/>
<path d="M3131 2071 c-10 -6 -9 -10 3 -14 8 -3 18 -2 21 3 8 13 -9 20 -24 11z"/>
<path d="M1952 1138 c-6 -35 -8 -106 -5 -158 5 -89 3 -103 -33 -225 -32 -109
-38 -144 -37 -217 1 -113 41 -236 92 -282 25 -23 26 -32 6 -69 -21 -40 -45
-125 -45 -159 0 -25 3 -28 33 -28 27 0 35 5 44 30 6 16 16 30 21 30 5 0 12
-13 16 -30 4 -24 11 -30 31 -30 15 0 25 6 25 14 0 7 6 26 14 41 12 23 21 27
60 29 25 1 51 7 57 13 18 18 -38 29 -75 15 -16 -7 -32 -10 -34 -7 -2 2 5 20
17 40 l21 36 -30 -18 c-17 -10 -45 -32 -63 -50 -38 -38 -47 -40 -47 -13 0 46
66 125 138 166 21 12 36 30 42 53 12 44 59 87 105 95 27 5 41 16 56 41 11 19
29 37 40 40 10 3 37 22 60 41 23 19 56 42 73 51 17 8 41 25 54 36 16 15 25 18
33 10 17 -17 -6 -49 -56 -79 -43 -25 -45 -28 -39 -59 5 -27 2 -35 -15 -44 -12
-7 -21 -21 -21 -32 0 -18 4 -20 28 -15 15 4 32 15 37 24 20 33 77 82 96 82 11
0 31 -11 45 -25 l25 -26 30 26 c41 34 59 32 59 -5 0 -23 -11 -41 -40 -70 -36
-35 -50 -60 -34 -60 3 0 20 11 38 25 25 19 35 22 44 13 21 -21 13 -37 -38 -74
-27 -20 -50 -39 -50 -42 0 -4 -17 -18 -38 -32 -20 -14 -66 -52 -102 -86 -75
-69 -153 -119 -175 -110 -8 3 -15 16 -16 28 l0 23 -12 -24 c-9 -19 -8 -26 6
-36 9 -7 17 -17 17 -24 0 -17 176 -15 183 3 3 7 29 27 59 43 29 17 93 63 142
102 49 39 93 71 97 71 13 0 19 -32 9 -51 -6 -11 -8 -40 -4 -68 6 -48 5 -50
-25 -65 -52 -27 -40 -46 29 -46 l60 0 2 53 c4 114 -4 235 -19 290 -13 45 -14
66 -5 95 25 85 24 99 -11 123 -18 12 -81 60 -140 107 -90 70 -119 87 -179 104
-91 26 -140 49 -207 96 -30 22 -77 47 -106 56 -106 33 -262 152 -301 227 -13
27 -26 49 -27 49 -2 0 -8 -28 -15 -62z m195 -245 c3 -7 -11 -19 -30 -27 -31
-12 -35 -19 -42 -62 -6 -44 -5 -50 20 -71 14 -13 32 -23 40 -23 7 0 22 -11 33
-25 11 -14 22 -25 26 -25 3 0 10 19 16 41 10 37 9 45 -9 70 -27 36 -26 45 4
65 21 14 31 15 51 5 14 -6 34 -11 44 -11 26 0 26 -30 0 -37 -11 -3 -20 -9 -20
-15 0 -5 9 -18 20 -30 26 -28 25 -32 -5 -52 -14 -9 -23 -21 -21 -25 7 -10 54
-2 62 10 9 16 24 9 24 -11 0 -26 -118 -138 -179 -170 -48 -25 -106 -83 -130
-128 l-13 -24 -23 22 c-47 44 -88 178 -66 218 6 11 11 38 11 60 0 47 26 77 41
49 12 -21 25 -22 33 -2 8 23 -3 43 -27 47 -12 2 -23 11 -25 20 -4 19 56 98 74
98 6 0 21 11 34 25 25 26 50 30 57 8z m23 -552 c0 -12 -29 -35 -36 -28 -11 10
5 37 21 37 8 0 15 -4 15 -9z"/>
<path d="M2026 595 c-21 -32 -20 -45 3 -45 21 0 65 53 54 64 -14 14 -42 5 -57
-19z"/>
<path d="M2552 373 c-12 -22 -5 -43 13 -43 14 0 35 29 35 49 0 18 -39 12 -48
-6z"/>
<path d="M2656 323 c-35 -9 -81 -40 -84 -56 -6 -32 44 -19 89 23 41 38 40 44
-5 33z"/>
<path d="M2215 229 c-4 -6 -4 -13 -1 -16 8 -8 36 5 36 17 0 13 -27 13 -35 -1z"/>
<path d="M2782 38 c-20 -20 -14 -40 11 -36 14 2 22 10 22 22 0 24 -16 31 -33
14z"/>
<path d="M2277 24 c-14 -14 -6 -24 19 -24 16 0 24 5 22 13 -5 14 -31 21 -41
11z"/>
</g>
<!-- Azul -->
<g transform="translate(0.000000,829.000000) scale(0.100000,-0.100000)"
fill="#0000FF" stroke="none">
<path d="M 5425 3446 c -66 -22 -152 -64 -195 -95 c -64 -46 -84 -47 -207 -7 c -138 46 -182 47 -216 6 c -31 -36 -76 -57 -141 -65 c -37 -5 -50 -11 -54 -27 c -3 -15 -10 -18 -26 -13 c -39 13 -210 34 -273 35 c -34 0 -73 -4 -88 -10 c -14 -5 -55 -14 -90 -20 c -35 -6 -86 -21 -111 -35 c -53 -28 -100 -32 -131 -10 c -20 14 -21 13 -28 -32 c -4 -26 -28 -84 -55 -134 c -27 -48 -56 -104 -64 -124 c -9 -20 -37 -61 -64 -89 c -26 -29 -63 -84 -81 -122 c -19 -38 -54 -104 -78 -146 c -24 -42 -48 -98 -52 -125 c -5 -26 -25 -92 -44 -146 c -37 -102 -64 -268 -32 -200 c 18 39 23 40 183 47 c 108 5 135 3 228 -19 c 184 -43 311 -28 482 59 c 46 23 61 26 110 20 c 113 -12 287 28 417 96 c 57 30 118 39 130 20 c 9 -15 176 -12 288 5 c 71 11 110 12 140 5 c 66 -15 217 -12 268 5 c 38 13 104 15 412 13 l 367 -3 l 6 35 c 12 67 53 125 159 230 c 59 58 115 121 125 140 c 22 43 50 176 50 239 c 0 46 20 120 47 170 c 16 32 16 104 -1 150 l -12 34 l -73 -2 c -40 -1 -100 -11 -133 -22 c -33 -10 -67 -19 -74 -19 c -7 0 -66 19 -131 41 c -114 40 -123 41 -248 42 c -71 1 -171 0 -220 -2 c -55 -3 -98 0 -110 7 c -124 70 -286 98 -380 68 z z z z z z z z z z z z z z c 9 0 20 -5 23 -11 z"/>
<path d="M 1190 3358 c -119 -12 -174 -26 -203 -54 c -15 -13 -27 -29 -27 -34 c 0 -15 -27 -12 -53 4 c -29 20 -147 46 -203 46 c -67 0 -191 -28 -246 -56 c -57 -29 -101 -30 -165 -5 c -70 27 -124 34 -214 26 l -79 -7 l 0 -194 c 0 -144 0 -193 0 -193 c 0 0 0 -12 0 -12 c 0 0 0 -101 0 -101 c 0 0 0 -323 0 -323 l 0 -322 l 65 6 c 36 4 80 12 98 20 c 117 50 181 57 249 30 c 69 -29 273 -24 410 10 c 97 24 114 25 194 16 c 48 -5 91 -12 96 -15 c 5 -4 47 -3 92 1 c 76 6 87 10 134 45 l 51 39 l 68 -26 c 58 -23 83 -27 173 -27 c 89 -1 112 3 149 22 c 65 32 162 31 249 -5 c 117 -47 211 -33 258 39 c 42 65 116 74 268 33 c 29 -8 29 -8 22 26 c -3 19 -22 57 -40 85 c -51 77 -86 150 -86 181 c 0 62 34 142 139 333 c 29 52 68 131 86 175 c 19 44 40 96 48 115 l 15 35 l -36 3 c -21 1 -84 3 -142 4 c -94 1 -114 -2 -197 -31 l -92 -32 l -68 34 c -117 58 -180 71 -321 63 c -118 -7 -125 -6 -175 18 c -29 14 -81 30 -117 35 c -71 11 -281 10 -400 -1 z z z"/>
<path d="M 7873 3158 c -11 -13 -29 -39 -38 -58 c -10 -19 -37 -60 -60 -91 c -38 -52 -43 -66 -58 -160 c -9 -57 -19 -125 -22 -151 c -7 -51 -101 -254 -129 -277 c -30 -25 -48 -72 -42 -109 c 3 -19 23 -64 45 -101 c 21 -36 42 -76 45 -87 c 4 -14 15 -22 29 -22 c 12 1 65 -9 117 -21 c 150 -34 256 -38 332 -13 c 35 11 81 23 103 27 c 21 4 52 13 67 21 c 15 8 56 14 93 14 l 65 0 l 0 263 l 0 263 l 0 37 c 0 0 0 0 0 51 c 0 21 0 42 0 61 c 0 0 0 0 0 43 c 0 0 0 0 0 12 c 0 5 0 0 0 10 c 0 8 0 0 0 8 c 0 4 0 5 0 13 c 0 9 0 0 0 10 c -1 29 -1 23 -1 31 c 0 16 0 0 0 23 c 0 0 0 0 0 26 c 0 0 0 0 0 19 c 0 0 0 0 0 15 c 0 0 0 0 1 27 c 0 27 0 0 0 36 c 0 0 0 1 0 21 C 8420 3190 8420 3140 8364 3158 c -26 19 -158 9 -242 -18 c -86 -27 -119 -25 -171 10 c -24 17 -47 30 -51 30 c -3 0 -16 -10 -27 -22 z z z"/>
</g>
<g transform="translate(0.000000,829.000000) scale(0.100000,-0.100000)"
fill="#000000" stroke="none">
<path d="M5420 3442 c-67 -23 -142 -60 -193 -94 -61 -43 -84 -43 -210 -4 -142
44 -177 46 -209 9 -33 -40 -73 -63 -107 -63 -48 0 -81 -17 -81 -41 0 -18 -4
-20 -27 -14 -73 18 -235 35 -298 32 -101 -6 -223 -33 -279 -62 -59 -30 -85
-31 -119 -5 l-25 20 -7 -48 c-4 -27 -29 -88 -58 -142 -29 -53 -63 -117 -76
-143 -13 -27 -33 -53 -43 -58 -23 -12 -49 -54 -123 -194 -32 -61 -66 -126 -77
-145 -10 -19 -18 -44 -18 -57 0 -20 -15 -70 -64 -208 -7 -22 -16 -69 -20 -105
-5 -59 -5 -62 8 -37 18 40 32 47 105 47 36 0 90 5 120 11 50 11 68 9 161 -14
58 -14 143 -29 190 -33 94 -7 136 4 313 82 73 32 82 33 118 23 71 -22 258 21
402 92 85 42 143 51 154 23 5 -15 20 -16 127 -10 67 4 149 11 182 16 40 7 80
7 114 0 78 -15 211 -12 260 5 35 12 109 15 411 15 l368 0 7 38 c10 58 39 99
159 222 62 63 120 129 128 147 16 30 24 72 47 248 6 43 22 104 35 133 28 62
32 117 10 168 l-14 35 -78 -7 c-43 -3 -97 -12 -121 -20 -55 -18 -94 -18 -139
1 -20 9 -73 25 -117 37 -71 19 -109 22 -307 22 -196 1 -228 3 -242 18 -9 9
-31 19 -48 23 -17 4 -46 15 -63 25 -49 29 -186 35 -256 12z m230 -98 c19 -13
47 -39 62 -57 24 -28 29 -31 47 -19 34 20 49 14 105 -43 44 -46 59 -55 88 -55
44 0 68 -29 203 -240 17 -26 46 -67 66 -91 76 -93 95 -143 64 -169 -21 -18
-19 -40 9 -81 14 -20 28 -49 32 -65 l7 -29 -24 21 c-67 58 -105 63 -85 13 10
-28 9 -33 -13 -50 -30 -25 -72 -24 -123 2 -23 12 -63 28 -90 36 -38 11 -64 30
-115 81 -36 37 -83 90 -103 117 -21 28 -64 75 -95 105 -62 60 -150 166 -180
218 -11 17 -27 34 -36 37 -9 3 -36 28 -60 54 -61 68 -94 103 -118 125 -28 26
-27 32 8 44 16 6 35 23 43 39 19 41 54 42 76 4 22 -40 30 -39 34 7 2 30 7 38
26 40 18 3 25 -3 33 -28 6 -17 24 -37 40 -46 33 -17 34 -15 14 32 -26 63 -5
62 85 -2z m372 -60 c26 -14 35 -14 52 -4 11 7 57 14 102 16 l82 3 27 -35 c14
-19 35 -34 46 -34 25 0 57 -16 87 -44 17 -15 37 -21 70 -21 l47 0 8 -65 c4
-36 9 -86 11 -112 1 -26 7 -53 13 -60 6 -7 13 -25 17 -40 10 -42 -13 -46 -44
-8 -27 32 -28 33 -38 13 -7 -11 -23 -24 -37 -27 -26 -7 -33 -20 -15 -31 20
-12 8 -41 -26 -62 -20 -13 -39 -23 -43 -23 -15 0 -69 67 -101 125 -19 33 -57
85 -85 115 -29 30 -78 91 -109 135 -32 44 -74 94 -93 111 -24 21 -34 37 -30
48 8 20 20 20 59 0z m-948 -34 c21 -16 62 -36 91 -45 40 -11 61 -25 80 -50 16
-20 45 -41 71 -51 45 -17 106 -75 126 -119 6 -14 19 -27 29 -30 17 -6 42 -31
159 -165 36 -41 116 -124 178 -185 121 -119 135 -146 85 -167 -16 -6 -50 -12
-78 -13 -27 -1 -62 -5 -77 -9 -20 -6 -39 -2 -71 13 -60 29 -70 28 -62 -9 8
-37 -7 -39 -37 -5 -27 31 -54 32 -85 3 l-23 -21 -52 49 c-29 27 -84 83 -123
124 -38 41 -90 94 -115 117 -83 78 -157 160 -186 209 -21 33 -122 129 -194
184 -25 19 -61 50 -80 69 -33 33 -33 35 -13 44 15 6 33 3 67 -11 38 -17 46
-18 46 -6 0 8 -11 20 -25 26 -14 6 -25 15 -25 19 0 18 44 31 83 25 28 -5 44
-2 56 8 14 13 40 18 117 24 12 1 38 -11 58 -28z m1534 -22 c16 -16 15 -38 -2
-38 -18 0 -39 27 -31 40 8 13 18 13 33 -2z m-2303 -27 c3 -5 58 -8 123 -7
l117 3 48 -52 c32 -35 61 -56 88 -64 52 -16 126 -83 134 -122 5 -22 25 -43 73
-79 67 -48 85 -68 153 -170 37 -56 133 -161 179 -196 14 -10 33 -31 42 -46 15
-22 15 -27 3 -32 -19 -7 -19 -30 0 -46 19 -16 16 -54 -5 -58 -8 -1 -28 9 -44
23 -34 30 -48 28 -56 -6 -7 -31 -41 -36 -65 -9 -19 21 -50 27 -60 10 -10 -16
-45 -11 -72 10 -17 14 -41 20 -72 20 -42 0 -51 5 -86 40 -21 22 -44 40 -51 40
-7 0 -30 15 -53 33 -22 17 -63 49 -90 71 -27 21 -78 72 -113 114 -35 41 -82
96 -104 121 -23 25 -49 62 -59 81 -9 19 -43 62 -75 95 -31 33 -66 76 -78 95
-29 50 -17 64 51 61 65 -3 82 13 32 29 -19 6 -35 15 -35 19 0 25 61 43 75 22z
m-215 -232 c8 -1 25 2 38 6 19 6 34 -4 95 -67 95 -98 277 -309 293 -341 8 -13
25 -28 39 -31 23 -6 65 -40 188 -151 30 -27 28 -45 -4 -45 -10 0 -19 -4 -19
-10 0 -5 -13 -16 -28 -24 -26 -13 -136 -15 -430 -7 -40 1 -49 7 -113 72 -59
60 -108 119 -164 195 -6 9 -6 24 2 45 11 28 10 36 -7 59 -25 35 -25 38 2 60
21 16 21 20 9 61 -13 41 -12 43 13 62 30 22 32 36 11 78 -20 38 -11 53 29 45
17 -4 38 -7 46 -7z m-325 -429 c10 -11 23 -20 29 -20 6 0 34 -12 61 -25 28
-14 62 -25 76 -25 31 0 58 -28 94 -98 32 -61 53 -77 112 -87 52 -8 98 -41 83
-60 -5 -6 -39 -15 -73 -18 -35 -3 -77 -12 -93 -20 -26 -13 -70 -30 -116 -44
-10 -3 -32 11 -59 37 -24 23 -56 48 -71 56 -22 11 -28 22 -28 46 0 26 -12 43
-60 90 -44 43 -56 60 -45 64 28 11 63 -6 85 -41 13 -20 30 -35 41 -35 33 0 21
27 -28 62 -40 29 -50 42 -59 81 -6 26 -8 49 -6 52 12 11 40 4 57 -15z m1580
-140 c3 -6 -1 -7 -9 -4 -18 7 -21 14 -7 14 6 0 13 -4 16 -10z m-1638 -114 c15
-13 25 -27 21 -31 -8 -8 -60 18 -77 39 -22 27 23 20 56 -8z"/>
<path d="M4480 3151 c0 -10 31 -31 45 -31 11 0 -5 20 -26 30 -12 7 -19 7 -19
1z"/>
<path d="M4248 3053 c7 -3 16 -2 19 1 4 3 -2 6 -13 5 -11 0 -14 -3 -6 -6z"/>
<path d="M1260 3363 c-194 -21 -223 -27 -253 -47 -17 -12 -36 -32 -42 -44 -11
-26 -22 -28 -44 -8 -26 24 -204 58 -259 50 -63 -8 -172 -38 -208 -57 -55 -28
-80 -28 -160 -2 -78 25 -143 30 -241 19 -46 -6 -53 -10 -53 -29 0 -29 16 -35
101 -35 67 0 71 -2 112 -39 32 -30 56 -41 102 -51 54 -11 65 -18 115 -71 30
-33 62 -59 71 -59 32 0 112 -65 217 -178 59 -64 143 -151 187 -192 44 -41 93
-93 110 -115 21 -27 46 -45 79 -57 27 -9 62 -30 78 -45 35 -33 68 -93 68 -124
0 -18 -4 -20 -27 -14 -16 3 -52 6 -81 5 -52 -1 -156 23 -178 41 -7 5 -10 19
-7 29 3 11 1 21 -3 21 -5 1 -22 3 -39 5 -16 3 -52 -3 -80 -12 l-50 -16 -60 36
c-33 20 -83 60 -111 89 -28 28 -109 110 -178 181 -75 76 -133 144 -142 166 -9
23 -42 59 -91 100 -43 36 -93 80 -112 98 -19 17 -45 32 -58 32 -22 0 -23 -4
-23 -62 l0 -63 57 -35 c32 -19 82 -58 113 -85 30 -28 85 -76 121 -107 37 -32
81 -80 99 -107 17 -28 41 -53 52 -57 11 -3 61 -43 112 -88 51 -46 109 -93 130
-105 41 -26 42 -27 20 -71 -16 -31 -19 -32 -58 -25 -22 3 -50 6 -61 5 -93 -6
-166 1 -197 20 -18 11 -46 20 -61 20 -39 0 -86 22 -127 59 -19 17 -38 31 -41
31 -4 0 -19 18 -33 39 -24 35 -84 71 -116 71 -6 0 -10 -40 -10 -95 l0 -95 28
0 c37 0 65 -21 61 -46 -3 -15 -14 -20 -47 -22 l-42 -3 0 -46 0 -45 58 6 c31 4
103 23 159 42 56 19 110 34 120 34 10 0 43 -10 73 -21 45 -18 77 -22 170 -22
119 -1 191 10 298 45 34 11 70 17 80 13 35 -13 169 -28 241 -26 77 2 108 13
159 56 l30 25 68 -26 c58 -23 86 -27 174 -27 90 -1 111 2 148 21 60 32 156 32
242 -1 124 -46 195 -43 242 10 79 89 70 84 155 82 43 -1 92 -8 110 -16 18 -7
37 -13 43 -13 19 0 1 61 -30 105 -15 22 -42 69 -60 105 -28 55 -32 71 -27 115
5 49 53 166 87 215 38 54 190 377 190 405 0 1 -6 2 -12 2 -7 -1 -45 5 -84 12
-65 13 -79 12 -174 -8 -56 -13 -121 -31 -144 -43 l-41 -20 -76 40 c-122 65
-171 76 -319 67 -116 -6 -129 -5 -161 14 -58 34 -126 45 -289 45 -86 1 -162 0
-170 -1z m43 -113 c15 -12 40 -20 61 -20 23 0 39 -5 42 -15 8 -21 28 -19 49 5
22 24 51 26 59 5 3 -9 20 -22 38 -30 18 -7 55 -36 83 -64 30 -32 58 -51 72
-51 27 0 44 -28 36 -59 -6 -25 19 -50 53 -51 24 0 60 -37 138 -140 74 -98 96
-145 96 -204 0 -26 7 -62 15 -80 16 -34 77 -102 138 -153 22 -19 37 -40 37
-53 0 -19 -4 -22 -30 -18 -18 3 -31 0 -34 -9 -4 -9 -28 -13 -83 -13 -83 0 -98
6 -158 63 -16 15 -41 34 -55 42 -14 7 -50 41 -79 75 -30 34 -77 80 -105 102
-28 22 -62 57 -76 78 -42 61 -153 181 -184 197 -17 9 -73 59 -125 113 -53 53
-116 112 -141 130 -45 33 -106 107 -96 117 8 9 53 -6 70 -23 14 -14 15 -12 10
13 -4 20 -1 33 10 42 13 11 20 9 47 -13 39 -33 48 -33 60 4 13 35 18 36 52 10z
m713 -59 c133 -99 214 -195 214 -254 0 -33 9 -52 56 -122 18 -27 37 -66 40
-84 l7 -35 -51 45 c-29 24 -52 49 -52 56 0 17 -49 71 -50 54 0 -7 5 -32 12
-53 10 -35 10 -41 -4 -49 -9 -5 -19 -23 -23 -39 -4 -17 -12 -30 -18 -30 -7 1
-37 29 -68 63 -53 59 -149 229 -163 287 -3 14 -19 33 -36 42 -21 12 -30 25
-30 43 0 16 -12 39 -31 57 -38 39 -32 63 14 55 19 -3 43 1 57 9 14 7 30 13 36
14 5 0 46 -27 90 -59z m-1248 35 c6 -3 21 -2 34 3 29 11 65 -7 139 -74 30 -27
69 -62 85 -76 16 -14 40 -29 54 -33 63 -18 83 -32 124 -90 24 -33 114 -132
200 -219 86 -87 170 -176 185 -198 16 -22 41 -49 55 -60 13 -10 41 -42 61 -69
28 -38 36 -57 33 -82 l-3 -33 -128 -1 c-119 -1 -130 1 -159 23 -21 15 -46 23
-71 23 -56 0 -151 75 -381 303 -105 104 -222 219 -259 255 -37 37 -77 81 -89
98 -12 17 -34 40 -50 50 -15 10 -28 24 -28 30 0 6 -12 28 -26 49 -31 47 -23
77 28 99 33 14 174 16 196 2z m1000 -39 c16 -19 0 -37 -26 -30 -24 6 -30 28
-9 36 20 8 24 8 35 -6z m352 -17 c0 -11 -4 -20 -10 -20 -5 0 -10 9 -10 20 0
11 5 20 10 20 6 0 10 -9 10 -20z m320 0 c0 -5 -4 -10 -10 -10 -5 0 -10 5 -10
10 0 6 5 10 10 10 6 0 10 -4 10 -10z m-162 -94 c42 -46 75 -101 70 -117 -5
-15 -79 51 -109 99 -26 42 -29 62 -10 62 5 0 27 -20 49 -44z m92 -186 c0 -5
-4 -10 -10 -10 -5 0 -10 5 -10 10 0 6 5 10 10 10 6 0 10 -4 10 -10z m13 -63
c14 -22 21 -49 18 -71 -2 -17 -61 57 -61 76 0 25 25 22 43 -5z"/>
<path d="M1336 3174 c-9 -25 -7 -34 8 -34 19 0 28 14 20 34 -8 20 -20 20 -28
0z"/>
<path d="M1480 3160 c0 -5 5 -10 10 -10 6 0 10 5 10 10 0 6 -4 10 -10 10 -5 0
-10 -4 -10 -10z"/>
<path d="M1900 3180 c0 -13 28 -25 38 -16 3 4 0 11 -8 16 -20 13 -30 12 -30 0z"/>
<path d="M1518 2348 c12 -12 24 -19 28 -15 3 3 -1 13 -9 22 -9 8 -21 15 -29
15 -7 0 -4 -9 10 -22z"/>
<path d="M7858 3133 c-14 -21 -34 -52 -44 -70 -10 -17 -32 -47 -47 -67 -31
-39 -52 -118 -66 -254 -7 -69 -17 -100 -62 -192 -29 -61 -61 -118 -72 -128
-58 -52 -57 -108 3 -212 21 -36 41 -74 44 -85 4 -13 15 -20 33 -21 16 -1 71
-11 123 -23 172 -38 302 -28 480 37 25 9 73 16 108 16 l62 1 0 62 c0 61 0 62
-25 57 -42 -7 -163 45 -204 89 -20 21 -58 51 -86 67 -68 39 -145 112 -145 138
0 11 -4 23 -9 26 -5 3 -12 21 -15 40 -4 19 -13 39 -21 46 -8 7 -15 23 -15 36
0 19 5 22 28 21 21 -2 27 2 27 18 0 14 -8 21 -30 25 -38 7 -43 32 -10 54 30
20 33 52 5 61 -11 3 -20 13 -20 20 0 10 9 12 34 8 44 -7 53 9 27 51 -50 80 -1
76 83 -8 35 -36 82 -74 103 -85 42 -22 85 -64 131 -131 41 -58 68 -90 78 -90
4 0 3 5 -4 12 -7 7 -12 31 -12 53 0 37 -7 49 -61 106 -98 105 -152 189 -121
189 5 0 26 -13 48 -30 46 -35 54 -36 54 -12 0 11 -11 24 -24 30 -12 5 -33 29
-44 53 -33 66 -12 79 45 28 37 -32 59 -34 56 -3 -3 27 6 51 15 38 4 -6 17 -14
29 -18 18 -6 24 -2 29 18 12 50 2 56 -88 56 -61 0 -104 -7 -161 -25 -43 -14
-85 -25 -95 -25 -9 0 -37 14 -61 30 -24 17 -52 30 -61 30 -10 0 -29 -17 -42
-37z m242 -838 c7 -9 11 -18 8 -20 -9 -10 -38 7 -38 21 0 18 14 18 30 -1z
m-190 -61 c0 -23 -30 -38 -57 -28 -37 13 -37 26 0 52 30 21 33 21 45 5 6 -9
12 -22 12 -29z m137 3 l23 -13 -23 -32 c-23 -33 -54 -41 -75 -20 -13 13 -16
60 -5 71 10 11 56 7 80 -6z"/>
<path d="M8000 2837 c0 -24 8 -41 30 -62 27 -26 30 -27 36 -10 9 22 -33 105
-52 105 -9 0 -14 -12 -14 -33z"/>
<path d="M0 2845 c0 -16 16 -20 24 -6 3 5 -1 11 -9 15 -9 3 -15 0 -15 -9z"/>
</g>
</svg>